<?xml version="1.0" standalone="no"?>
<!DOCTYPE svg PUBLIC "-//W3C//DTD SVG 20010904//EN"
 "http://www.w3.org/TR/2001/REC-SVG-20010904/DTD/svg10.dtd">
<svg version="1.0" xmlns="http://www.w3.org/2000/svg"
 width="1376.000000pt" height="1376.000000pt" viewBox="0 0 1376.000000 1376.000000"
 preserveAspectRatio="xMidYMid meet">
<metadata>
Created by potrace 1.11, written by Peter Selinger 2001-2013
</metadata>
<g transform="translate(0.000000,1376.000000) scale(0.100000,-0.100000)"
fill="#000000" stroke="none">
<path d="M9148 11515 c-2 -2 -68 -6 -148 -9 -80 -3 -174 -8 -210 -11 -36 -2
-101 -7 -145 -10 -127 -9 -163 -13 -175 -20 -5 -3 -10 -1 -10 5 0 6 -5 8 -12
3 -7 -4 -33 -8 -58 -9 -25 -1 -45 -3 -45 -4 0 -1 -16 -3 -35 -5 -55 -4 -169
-16 -188 -20 -9 -1 -42 -6 -73 -9 -31 -4 -65 -8 -75 -10 -11 -2 -40 -6 -65
-10 -25 -4 -57 -9 -70 -11 -13 -2 -44 -6 -69 -10 -48 -6 -85 -13 -85 -15 0 -1
-12 -3 -26 -5 -37 -5 -89 -14 -119 -20 -14 -3 -41 -8 -60 -11 -19 -3 -41 -7
-49 -10 -16 -5 -185 -44 -216 -49 -53 -9 -80 -17 -92 -27 -7 -6 -13 -8 -13 -5
0 6 -177 -43 -330 -92 -36 -11 -68 -20 -73 -20 -4 -1 -20 -7 -36 -15 -15 -8
-40 -17 -53 -20 -14 -2 -34 -9 -44 -14 -11 -6 -68 -30 -129 -53 -60 -23 -114
-46 -119 -51 -6 -4 -16 -8 -24 -8 -19 0 -405 -189 -413 -202 -3 -5 -10 -10
-15 -10 -13 1 -118 -60 -122 -70 -2 -4 -9 -8 -15 -8 -9 0 -222 -134 -237 -150
-3 -3 -32 -25 -65 -49 -230 -170 -438 -383 -575 -586 -18 -27 -68 -118 -111
-201 l-79 -151 5 -1534 c3 -844 7 -1543 10 -1554 2 -11 4 -29 4 -41 l1 -21
1048 1 c576 1 1052 5 1058 8 6 4 14 4 18 0 12 -11 340 -8 348 3 5 7 8 7 8 0 0
-6 20 -9 48 -7 26 1 54 2 62 2 8 0 36 -1 63 -2 26 0 49 1 51 3 1 2 29 54 61
114 32 61 62 116 68 123 5 6 6 12 1 12 -5 0 -4 4 1 8 6 4 19 25 30 47 11 22
25 43 30 47 6 4 7 8 3 8 -4 0 1 15 11 33 11 17 42 75 69 127 27 52 69 132 92
177 30 57 47 80 57 76 7 -3 12 -8 9 -11 -3 -3 10 -32 28 -66 18 -34 59 -110
91 -171 32 -60 70 -132 85 -160 15 -27 47 -88 71 -133 l43 -84 27 54 c15 29
52 100 82 158 30 58 121 238 203 400 82 162 151 297 155 300 3 3 40 76 83 163
43 86 82 160 87 162 4 3 10 19 14 35 4 17 10 30 15 30 4 0 11 12 15 27 3 15
10 30 14 33 3 3 42 76 86 163 70 139 95 179 95 148 0 -8 40 -95 145 -316 18
-38 52 -110 75 -160 23 -49 63 -133 87 -185 96 -202 141 -297 162 -345 13 -27
27 -57 32 -65 5 -8 14 -26 19 -40 6 -14 17 -37 25 -51 8 -14 12 -29 8 -33 -3
-3 -1 -6 5 -6 7 0 12 -4 12 -9 0 -5 23 -58 52 -118 28 -59 52 -110 53 -113 1
-6 54 -116 121 -255 26 -55 48 -102 49 -105 0 -3 8 -19 18 -36 9 -17 13 -34
10 -38 -4 -3 -1 -6 5 -6 7 0 12 -4 12 -9 0 -5 24 -60 54 -122 29 -63 71 -152
93 -199 22 -47 60 -125 84 -175 24 -49 44 -92 44 -95 1 -3 18 -41 39 -85 21
-44 55 -116 76 -160 20 -44 58 -123 82 -175 84 -177 108 -229 108 -239 0 -5 5
-11 10 -13 6 -2 12 -14 15 -27 2 -14 9 -27 14 -30 5 -3 11 -15 13 -26 5 -19 6
-18 17 5 6 14 17 34 24 45 54 89 86 146 92 164 3 11 11 21 16 21 5 0 9 4 9 9
0 11 81 152 97 169 7 7 13 17 13 22 0 7 102 188 130 230 6 8 13 21 17 29 3 8
51 91 106 185 100 173 119 205 158 274 12 20 30 51 40 67 10 17 30 53 44 80
15 28 31 55 36 61 8 10 48 16 89 14 8 0 26 0 40 1 29 1 66 1 95 -1 25 -1 153
-1 180 0 30 2 29 2 158 0 9 0 25 0 35 0 9 0 41 0 70 0 30 0 58 -2 62 -5 5 -3
11 1 13 7 4 10 6 10 6 1 1 -9 8 -10 24 -4 12 5 31 5 42 1 11 -4 31 -4 44 0 13
3 46 3 72 0 31 -4 50 -2 53 4 3 7 5 6 5 -1 1 -9 8 -10 24 -4 12 5 31 5 42 1
11 -4 31 -4 45 -1 14 4 34 6 45 5 34 -5 67 -5 213 -4 106 0 167 -2 173 -5 4
-3 10 1 12 7 4 10 6 10 6 1 1 -9 8 -10 24 -4 12 5 31 5 42 1 11 -4 31 -4 44 0
13 3 46 3 71 0 26 -3 56 -3 66 1 11 3 29 3 41 -2 14 -5 23 -4 27 4 3 9 5 9 5
0 1 -9 8 -10 24 -4 12 5 31 5 42 1 11 -4 24 -5 29 -2 8 4 47 4 169 -1 26 -1
47 2 47 8 0 6 3 5 8 -1 4 -6 16 -8 26 -4 11 3 37 4 58 0 20 -4 40 -5 43 -2 3
3 27 5 54 3 l49 -2 -4 513 c-2 282 -6 551 -9 598 -3 47 -8 135 -10 195 -8 159
-13 232 -19 305 -3 36 -8 97 -11 135 -7 93 -15 189 -21 250 -19 190 -22 216
-28 260 -3 22 -8 65 -12 95 -7 66 -11 99 -29 235 -14 101 -22 151 -46 275 -12
58 -23 116 -25 130 -7 39 -54 222 -66 255 -23 68 -72 163 -110 215 -49 67
-209 224 -269 265 -24 17 -50 35 -56 42 -7 6 -43 26 -80 45 -38 18 -70 36 -71
41 -2 4 -8 5 -13 1 -5 -3 -15 -2 -21 3 -7 4 -24 9 -38 11 -14 2 -33 4 -44 6
-19 3 -89 -7 -136 -20 -14 -3 -33 -7 -42 -7 -10 -1 -18 -6 -18 -11 0 -5 -3 -6
-7 -3 -3 4 -12 2 -20 -4 -7 -6 -13 -9 -13 -6 0 3 -71 -19 -157 -49 -87 -30
-162 -56 -168 -58 -5 -2 -17 -6 -25 -9 -16 -6 -122 -44 -205 -73 -27 -9 -56
-22 -62 -27 -7 -5 -13 -7 -13 -4 0 4 -30 -5 -67 -19 -38 -14 -102 -37 -143
-51 -41 -13 -84 -29 -95 -33 -19 -9 -160 -59 -180 -64 -5 -2 -17 -6 -25 -9
-46 -19 -158 -59 -179 -63 -13 -3 -32 -9 -42 -15 -15 -8 -235 -82 -279 -94 -8
-3 -55 -18 -105 -35 -76 -27 -223 -72 -275 -85 -42 -10 -317 -87 -330 -92 -8
-3 -19 -7 -25 -9 -13 -3 -216 -54 -235 -59 -31 -7 -106 -26 -120 -29 -32 -9
-116 -28 -140 -32 -14 -3 -58 -12 -98 -20 -40 -8 -91 -17 -115 -20 -23 -3 -53
-7 -67 -9 -95 -15 -480 -41 -530 -36 -8 0 -26 18 -40 38 -25 37 -53 74 -77 99
-7 7 -13 16 -13 19 0 4 -13 24 -29 44 -49 62 -48 84 8 139 56 54 73 68 83 68
4 -1 15 6 25 14 10 9 20 16 23 17 3 0 39 16 80 35 41 19 91 40 110 47 19 7 49
20 67 27 17 8 123 44 235 80 112 36 210 68 218 71 8 3 20 7 25 8 32 7 222 57
235 61 8 3 15 5 15 5 0 0 32 9 70 20 39 11 79 21 90 23 11 2 61 14 110 26 50
12 97 23 105 25 8 2 16 4 18 5 3 3 9 5 62 15 52 10 58 12 65 15 3 1 14 4 25 5
11 1 21 3 23 5 1 1 11 3 22 5 32 5 79 15 97 21 10 3 30 8 45 10 16 3 48 10 73
15 25 6 54 12 65 15 101 20 159 31 210 40 11 1 31 5 45 9 14 3 39 8 55 10 17
3 37 8 45 10 14 4 25 6 105 20 17 3 55 11 85 17 30 6 66 12 80 13 14 2 25 4
25 5 0 1 9 3 20 5 63 9 103 16 125 21 14 3 36 8 50 10 28 4 87 15 110 20 8 2
29 6 45 8 48 7 199 36 213 41 7 3 15 4 18 4 16 -2 63 68 75 109 22 77 9 242
-22 277 -5 5 -9 15 -9 22 0 36 -149 203 -266 299 -60 50 -207 148 -218 145 -3
0 -25 10 -48 23 -48 26 -157 64 -263 91 -38 9 -77 20 -85 22 -8 3 -22 7 -30 8
-8 1 -44 8 -80 15 -36 7 -78 14 -95 17 -16 2 -41 6 -55 9 -14 2 -50 7 -80 10
-30 4 -62 10 -71 15 -10 5 -21 3 -27 -3 -7 -7 -12 -8 -12 -2 0 5 -15 10 -32
10 -18 1 -58 5 -88 8 -30 4 -77 9 -105 11 -27 1 -93 6 -145 10 -52 4 -122 9
-155 12 -69 5 -962 12 -967 8z"/>
<path d="M972 9429 c-15 -5 -17 -24 -17 -168 0 -101 4 -161 10 -161 6 0 6 -3
0 -8 -13 -9 -14 -192 -1 -192 5 0 4 -6 -1 -12 -5 -7 -8 -31 -6 -53 4 -50 4
-54 0 -90 -1 -16 1 -38 6 -47 4 -10 4 -18 0 -18 -9 0 -8 -94 1 -109 4 -5 2
-12 -3 -15 -5 -3 -5 -21 -1 -41 5 -21 4 -35 -2 -35 -5 0 -6 -5 -3 -10 3 -6 8
-475 11 -1043 2 -567 6 -1300 8 -1627 l4 -596 25 -54 c85 -187 162 -332 178
-338 5 -2 9 -8 9 -13 0 -9 30 -51 104 -147 52 -66 226 -219 296 -260 25 -14
47 -29 50 -33 8 -11 207 -109 223 -109 7 0 17 -3 21 -7 15 -15 129 -49 211
-62 87 -13 457 -3 485 14 5 3 78 16 110 19 9 1 20 5 25 8 6 3 30 11 55 18 25
6 61 19 80 27 73 32 180 87 180 92 0 3 13 12 28 19 16 6 37 20 48 30 10 10 26
23 35 28 52 30 187 158 264 249 61 72 135 179 135 194 0 6 5 11 10 11 6 0 10
9 10 19 0 11 3 21 8 23 4 2 28 47 54 100 l48 97 3 673 c1 370 6 678 10 685 4
6 4 14 -1 17 -4 3 -7 56 -5 118 4 129 4 116 0 188 -1 30 1 60 6 67 4 6 4 14
-1 17 -5 3 -7 18 -5 33 5 32 5 38 0 73 -2 14 0 37 4 53 4 15 4 27 0 27 -4 0
-6 17 -4 38 7 79 8 122 1 122 -4 0 -3 14 2 30 5 17 6 30 2 30 -4 0 -6 19 -5
42 1 24 2 43 3 43 6 0 4 58 -2 61 -5 3 -6 10 -2 16 3 5 8 450 10 989 3 923 3
979 -14 980 -118 4 -2687 2 -2700 -2z"/>
<path d="M4123 9430 c-17 -5 -18 -69 -19 -1580 0 -1660 -6 -2151 -30 -2475 -4
-49 -7 -105 -7 -122 -1 -18 -4 -33 -7 -33 -3 0 -6 -10 -6 -22 -6 -113 -48
-274 -102 -388 -41 -87 -132 -243 -144 -248 -4 -2 -8 -8 -8 -13 0 -12 -61 -98
-124 -174 -94 -114 -304 -305 -336 -305 -6 0 -10 -4 -10 -9 0 -5 -12 -16 -27
-24 -32 -16 -107 -57 -143 -78 -14 -8 -28 -18 -32 -24 -4 -5 -8 -7 -8 -3 0 4
-21 -4 -46 -17 -26 -14 -53 -25 -61 -25 -7 0 -25 -7 -38 -16 -13 -9 -30 -16
-37 -18 -7 -1 -26 -7 -43 -13 -77 -29 -202 -61 -270 -69 -11 -1 -20 -3 -20 -4
0 -4 -45 -10 -110 -16 -177 -17 -446 -2 -553 30 -9 3 -28 7 -42 10 -55 10
-246 79 -328 118 -91 44 -215 117 -220 130 -2 4 -9 8 -16 8 -7 0 -22 9 -34 20
-12 12 -22 18 -22 14 0 -4 -9 5 -21 20 -11 14 -24 26 -29 26 -5 0 -20 10 -33
23 -145 138 -186 179 -212 212 -16 21 -39 48 -50 60 -11 11 -24 28 -30 37 -5
8 -33 49 -61 89 -46 68 -118 187 -119 199 -1 3 -18 38 -38 77 -21 40 -37 74
-36 75 0 2 -4 14 -9 28 -16 40 -25 64 -28 79 -1 7 -8 34 -14 60 -18 79 -29
226 -35 475 -2 92 -6 170 -9 173 -2 2 0 18 4 34 5 16 6 29 2 29 -4 0 -8 118
-9 263 -7 902 -13 1359 -18 1367 -3 6 -1 10 5 10 7 0 8 6 0 19 -6 13 -7 22 0
26 5 3 6 13 3 21 -10 26 -10 88 0 102 5 6 6 12 1 12 -5 0 -10 188 -11 418 -5
1123 -8 1357 -18 1364 -8 6 -102 -39 -133 -64 -6 -6 -12 -7 -12 -4 0 10 -26
-12 -106 -92 -64 -64 -204 -264 -204 -292 0 -5 -5 -10 -12 -12 -12 -4 -15
-220 -20 -1480 -2 -318 -7 -578 -11 -578 -4 0 -3 -8 2 -18 6 -10 6 -24 1 -32
-5 -8 -6 -18 -3 -23 3 -4 4 -72 3 -150 -1 -78 -3 -376 -5 -662 -3 -286 -7
-833 -9 -1215 l-5 -695 32 -39 c18 -22 47 -54 64 -72 18 -19 33 -36 33 -38 0
-3 10 -16 23 -28 12 -13 58 -64 102 -113 104 -116 207 -216 274 -268 52 -40
57 -41 135 -44 155 -5 1284 -15 1931 -17 420 0 653 -5 657 -11 5 -7 8 -6 8 0
0 12 169 13 188 1 7 -4 12 -4 12 1 0 6 118 8 215 2 6 0 22 2 38 4 15 2 27 0
27 -5 0 -5 10 -4 21 3 17 9 20 8 14 -2 -6 -8 -4 -10 4 -4 18 10 101 13 101 2
0 -4 9 -3 20 3 12 7 26 7 36 2 9 -5 33 -6 54 -2 21 4 44 3 51 -1 8 -4 19 -3
26 2 8 7 18 7 32 -1 12 -6 21 -7 21 -3 0 10 41 10 57 0 7 -4 14 -3 18 3 4 6
12 7 23 1 9 -5 26 -5 40 0 15 6 21 5 17 -1 -4 -6 2 -7 17 -2 21 6 51 7 71 2
18 -5 64 -3 73 3 5 3 16 2 24 -4 19 -11 33 -12 26 -1 -3 5 4 8 16 8 l21 -1 1
393 c1 215 -3 392 -7 392 -5 0 -5 6 0 13 10 15 11 56 1 83 -4 12 -4 25 0 28 9
10 9 116 -1 116 -4 0 -5 6 0 13 10 15 11 56 1 83 -4 12 -4 25 0 28 9 10 9 116
-1 116 -4 0 -5 6 0 13 10 15 11 56 1 83 -4 12 -4 25 0 28 9 10 9 116 -1 116
-4 0 -5 6 0 13 10 15 11 56 1 83 -4 12 -4 25 0 28 10 10 9 116 -1 116 -6 0 -5
5 0 13 8 10 10 90 3 122 -1 6 -1 15 0 20 6 31 4 805 -3 805 -5 0 -5 6 0 13 10
15 11 56 1 83 -4 12 -4 25 0 28 9 10 9 116 -1 116 -4 0 -5 6 0 13 10 15 11 56
1 83 -4 12 -4 25 0 28 9 10 9 116 -1 116 -4 0 -5 6 0 13 10 15 11 56 1 83 -4
12 -4 25 0 28 9 10 9 116 -1 116 -4 0 -5 6 0 13 10 15 11 56 1 83 -4 12 -4 25
0 28 10 10 9 116 -1 116 -6 0 -5 5 0 13 8 10 10 90 3 122 -1 6 -1 15 0 20 6
31 4 805 -3 805 -5 0 -5 6 0 13 10 15 11 56 1 83 -4 12 -4 25 0 28 9 10 9 116
-1 116 -4 0 -5 6 0 13 10 15 11 56 1 83 -4 12 -4 25 0 28 9 10 9 116 -1 116
-4 0 -5 6 0 13 10 15 11 56 1 83 -4 12 -4 25 0 28 9 10 9 116 -1 116 -4 0 -5
6 0 13 10 15 11 56 1 83 -4 12 -4 25 0 28 10 10 9 116 -1 116 -6 0 -5 5 0 13
8 10 10 90 3 122 -1 6 -1 15 0 20 1 6 3 63 4 127 l1 118 -40 1 c-203 3 -347 3
-362 -1z"/>
<path d="M8944 7738 c-119 -237 -267 -524 -276 -535 -6 -7 -7 -13 -3 -13 5 0
0 -9 -10 -20 -10 -11 -15 -20 -10 -20 4 0 2 -6 -4 -13 -6 -8 -47 -85 -91 -172
-44 -87 -84 -163 -89 -169 -5 -6 -12 -22 -16 -36 -4 -14 -10 -27 -14 -30 -3
-3 -66 -124 -140 -270 -73 -146 -137 -269 -142 -274 -5 -6 -11 -1 -15 10 -4
10 -10 21 -13 24 -8 6 -28 52 -29 64 0 5 -6 12 -14 17 -7 5 -14 12 -14 16 -5
26 -18 53 -26 53 -5 0 -7 4 -4 9 4 5 3 11 -1 13 -5 1 -32 50 -62 108 -30 58
-72 137 -93 175 -21 39 -45 85 -53 104 -9 18 -18 32 -20 30 -1 -2 -24 -46 -50
-96 -26 -51 -51 -95 -55 -98 -5 -3 -11 -19 -15 -35 -4 -17 -10 -30 -15 -30 -4
0 -13 -12 -19 -27 -6 -16 -15 -35 -20 -43 -4 -8 -19 -35 -32 -60 -12 -25 -27
-48 -33 -52 -6 -4 -8 -8 -4 -8 9 0 -30 -78 -43 -86 -5 -3 -9 -11 -9 -19 0 -7
-10 -29 -22 -48 l-23 -34 -1365 0 c-751 -1 -1377 -2 -1391 -2 l-25 -1 2 -967
c2 -533 3 -1150 3 -1373 l1 -406 82 -39 c46 -21 86 -38 91 -37 4 1 7 -3 7 -8
0 -6 5 -10 11 -10 6 0 50 -19 97 -41 481 -229 675 -318 711 -325 8 -1 17 -6
20 -11 3 -4 11 -9 16 -10 6 -1 71 -28 145 -59 180 -75 573 -218 625 -228 6 -1
16 -5 23 -9 6 -5 12 -6 12 -3 0 3 12 1 28 -5 15 -6 34 -12 42 -14 8 -2 44 -12
80 -23 36 -11 79 -23 95 -27 17 -4 37 -9 45 -11 158 -41 447 -103 505 -109 17
-2 44 -7 60 -10 50 -11 127 -24 175 -31 48 -6 63 -8 125 -18 22 -4 63 -9 90
-12 79 -8 154 -17 235 -28 14 -2 63 -7 110 -11 47 -4 99 -9 115 -10 27 -3 139
-12 240 -20 22 -2 87 -6 145 -10 58 -3 133 -8 168 -10 193 -14 851 -37 1462
-51 336 -8 1324 -12 1335 -6 5 3 23 7 40 9 17 2 56 10 86 18 30 8 61 17 69 19
51 14 469 213 515 246 6 4 42 24 80 45 114 62 226 138 293 200 95 88 312 348
312 374 0 5 4 11 8 13 11 4 83 111 118 174 15 27 30 51 33 54 19 16 147 298
166 365 5 17 9 33 10 38 2 4 4 9 5 12 1 3 3 8 4 13 1 4 6 21 13 37 12 31 50
155 58 190 2 11 9 38 15 60 6 22 13 47 15 55 2 8 4 15 5 15 1 0 3 11 6 24 2
13 13 59 24 103 12 43 18 83 15 88 -4 6 -2 10 3 10 5 0 9 6 9 13 1 6 9 46 18
87 9 41 19 89 21 105 3 17 10 48 16 70 6 22 12 54 14 70 2 17 13 80 24 140 12
61 23 126 25 145 2 19 4 35 5 35 1 0 3 11 5 25 3 29 16 118 20 140 1 8 6 40
10 70 4 30 9 64 11 75 2 11 6 43 9 70 4 28 8 61 10 75 4 26 18 160 21 195 1
11 2 22 4 25 1 3 3 28 5 55 2 28 6 79 9 115 6 56 13 150 19 239 l2 24 -1130 1
c-621 1 -1138 -2 -1147 -6 -16 -8 -86 -119 -79 -127 1 -2 -1 -7 -6 -10 -9 -6
-16 -20 -58 -99 -15 -29 -31 -55 -36 -58 -5 -3 -9 -14 -9 -24 0 -10 -4 -20 -8
-22 -5 -1 -30 -43 -57 -93 -27 -49 -53 -93 -59 -97 -6 -4 -7 -8 -3 -8 4 0 -4
-17 -18 -37 -14 -21 -25 -43 -25 -49 0 -6 -7 -17 -15 -24 -8 -7 -15 -21 -15
-30 0 -10 -3 -20 -8 -22 -9 -4 -122 -205 -122 -218 0 -4 -3 -10 -8 -12 -4 -1
-19 -25 -33 -53 -14 -27 -60 -111 -102 -185 -41 -74 -90 -162 -109 -196 -166
-301 -173 -312 -185 -302 -7 6 -13 14 -13 19 0 5 -13 38 -30 72 -16 35 -30 66
-30 69 0 4 -17 44 -39 90 -47 102 -82 182 -81 186 0 1 -7 17 -17 35 -9 17 -18
34 -18 37 -1 8 -44 103 -55 122 -6 10 -10 25 -10 33 0 8 -4 15 -9 15 -5 0 -12
11 -15 25 -4 15 -19 53 -35 85 -16 32 -26 61 -23 64 3 4 0 6 -6 6 -7 0 -12 6
-12 14 0 7 -18 52 -39 98 -48 104 -74 161 -75 168 -1 3 -11 25 -22 50 -12 25
-35 77 -52 115 -44 99 -80 180 -113 253 -16 35 -29 65 -29 67 0 2 -16 38 -35
79 -19 42 -35 81 -35 86 0 6 -4 10 -8 10 -5 0 -9 6 -9 13 0 6 -17 48 -38 92
-20 44 -38 85 -40 90 -2 10 -24 58 -86 193 -16 35 -29 65 -29 67 0 2 -16 38
-35 79 -19 42 -36 82 -38 89 -1 6 -4 14 -7 17 -3 3 -25 50 -49 105 -24 55 -54
123 -66 150 -13 28 -57 129 -100 225 -42 96 -88 199 -101 228 -13 28 -35 76
-48 105 -13 28 -27 62 -31 75 -3 12 -11 22 -16 22 -5 0 -34 -51 -65 -112z"/>
</g>
</svg>
