<?xml version="1.0" encoding="UTF-8" standalone="no"?> <!-- Created with Inkscape (http://www.inkscape.org/) --> <svg xmlns:dc="http://purl.org/dc/elements/1.1/" xmlns:cc="http://creativecommons.org/ns#" xmlns:rdf="http://www.w3.org/1999/02/22-rdf-syntax-ns#" xmlns:svg="http://www.w3.org/2000/svg" xmlns="http://www.w3.org/2000/svg" xmlns:sodipodi="http://sodipodi.sourceforge.net/DTD/sodipodi-0.dtd" xmlns:inkscape="http://www.inkscape.org/namespaces/inkscape" width="375" height="87.967819" viewBox="0 0 99.218753 23.274819" id="svg3798" inkscape:version="0.92.2 (5c3e80d, 2017-08-06)" sodipodi:docname="healthyFighterSimpleV3.svg"> <defs id="defs3792"></defs> <metadata id="metadata3795"></metadata> <g inkscape:label="Calque 1" inkscape:groupmode="layer" id="layer1" transform="translate(-28.179033,-85.577094)"> <path style="fill:none;stroke:#000000;stroke-width:0.52388197;stroke-linecap:round;stroke-linejoin:round;stroke-miterlimit:4;stroke-dasharray:none;stroke-opacity:1" d="m 59.935131,104.89024 0.584938,0.002" id="path970" inkscape:connector-curvature="0" inkscape:export-xdpi="51.827873" inkscape:export-ydpi="51.827873"></path> <path style="fill:none;stroke:#000000;stroke-width:0.52388197;stroke-linecap:round;stroke-linejoin:round;stroke-miterlimit:4;stroke-dasharray:none;stroke-opacity:1" d="m 46.298241,104.8775 13.63689,0.0125" id="path968" inkscape:connector-curvature="0" sodipodi:nodetypes="cc" inkscape:export-xdpi="51.827873" inkscape:export-ydpi="51.827873"></path> <g transform="matrix(0.18700242,0,0,0.16219817,302.60242,38.031355)" id="g4990" inkscape:export-xdpi="51.827873" inkscape:export-ydpi="51.827873" style="fill:#d65456;fill-opacity:1;stroke:#000000;stroke-width:3.0080626;stroke-linecap:round;stroke-linejoin:round;stroke-miterlimit:4;stroke-dasharray:none;stroke-opacity:1"> <path sodipodi:nodetypes="ccccccccccccsccscssscccccccsscccccccccccccc" inkscape:connector-curvature="0" id="path860" d="m -970.14299,411.83184 c 0.88307,-0.86287 1.64404,-1.69156 1.99853,-2.44207 0.94493,-2.00059 2.13971,-4.58531 1.16731,-5.55794 -0.97261,-0.97261 -1.41737,1.19524 -2.22321,2.00107 -0.80582,0.80582 -3.83509,1.33388 -6.33609,1.77843 -2.50121,0.44479 -5.55815,1.83405 -9.78267,1.1115 -4.22405,-0.72231 -14.00632,-2.88993 -17.11888,-3.55687 -3.1128,-0.66695 -2.5571,-2.16786 -6.5589,-2.61242 -1.6655,-0.18502 -4.1493,-0.70723 -6.6179,-1.29382 0.9377,-1.90473 2.1539,-4.40547 2.7828,-5.82084 1.1117,-2.50122 2.7236,-3.16816 2.39,-5.72497 -0.3336,-2.5568 -0.3611,-5.69728 0.2782,-6.3363 0.639,-0.63926 2.3898,0.11138 3.1679,0.11138 0.7782,0 2.3903,1.83382 3.3906,2.11203 1.0003,0.27776 4.27966,0.50037 5.83596,0.22216 1.5565,-0.27776 4.94682,-2.00106 4.94682,-4.27964 0,-2.27883 1.3339,-3.33495 0.83373,-4.39109 -0.50038,-1.05589 -1.05588,-3.11254 -2.27881,-3.89069 -1.22294,-0.77813 -4.11304,-1.44531 -5.72514,-1.44531 -1.61186,0 -4.39096,0.77836 -5.66946,0.77836 -1.2785,0 -2.8972,0.69397 -3.2794,1.61189 -0.5557,1.33411 -3.6676,0.16701 -3.1679,-1.77845 0.9449,-1.72284 2.0569,-4.66861 2.7236,-6.22488 0.667,-1.55651 4.3355,-5.61376 6.2251,-6.55894 1.89,-0.94469 5.39166,-2.112 7.72586,-3.44613 2.33466,-1.33388 5.5861,-2.97344 7.28149,-1.27829 1.69516,1.69517 2.72336,2.61242 3.77971,3.05696 1.05614,0.44455 1.61189,1.66724 2.16762,1.66724 0.55576,0 0.83376,-0.88932 0.83376,-1.55627 v -1.72307 c 0,0 1.8338,1.94547 2.33418,1.44531 0.50038,-0.50015 -0.36126,-1.13941 -1.00031,-1.77866 -0.63902,-0.63904 -1.97316,-2.4177 -2.4456,-2.89017 -0.47246,-0.47224 -2.16738,-1.72307 -3.33473,-1.94547 -1.16731,-0.22238 -5.05822,-1.00052 -7.7816,-0.33358 -2.72342,0.66695 -12.20038,2.52889 -13.50648,3.83533 -1.3061,1.30619 -8.1703,7.94817 -9.3932,9.67103 -1.2227,1.72305 -3.5018,3.16815 -5.2802,4.05748 -1.7784,0.88956 -6.9476,4.05749 -11.6718,7.83698 -4.7245,3.7795 -9.2265,9.72686 -10.8942,13.0062 -1.6673,3.27935 -4.0019,5.94714 -4.78,7.39222 -0.7782,1.44529 -1.3764,5.07582 -5.4338,5.96493 -3.6523,0.80072 -10.7805,4.06608 -12.5803,8.83855" style="fill:#d65456;fill-opacity:1;stroke:#000000;stroke-width:3.0080626;stroke-linecap:round;stroke-linejoin:round;stroke-miterlimit:4;stroke-dasharray:none;stroke-opacity:1"></path> </g> <path sodipodi:nodetypes="cssssssssscccsscscssscssssssscssccsssscccscsssccsccsssscsscscsssscssscsssscssssccssssccsssssssssscsccsssscccscsscssssssscscsccccscssssssc" inkscape:connector-curvature="0" id="path4923" d="m 78.53398,104.69983 c 0.02549,-0.0489 0.532966,-0.60395 0.567611,-0.70693 0.03458,-0.10301 0.04444,-0.2189 0.178103,-0.38625 0.133593,-0.16738 0.262247,-0.42486 0.237477,-0.7081 -0.02473,-0.28327 -0.08902,-0.76387 -0.217685,-1.15869 -0.128656,-0.39483 -0.346333,-1.14154 -0.371069,-1.53637 -0.02472,-0.394802 -0.197937,-0.849699 -0.301821,-1.004202 -0.103867,-0.154508 -0.178121,-0.317581 -0.202849,-0.476357 -0.0249,-0.158784 -0.0059,-0.334735 -0.06433,-0.454917 -0.05932,-0.120147 -0.267184,-0.858285 -0.331486,-0.914079 -0.06433,-0.05586 -0.291938,-0.699514 -0.291938,-1.051429 h -0.07911 l 0.03951,-0.592216 c 0,0 -0.103867,-0.0049 -0.103867,-0.06867 0,-0.06437 0,-0.291797 -0.113775,-0.381937 -0.113835,-0.09013 -0.202857,-0.261778 -0.202857,-0.261778 0,0 -0.53934,-0.133023 -0.583859,-0.133023 -0.04453,0 -0.07418,-0.0558 -0.07418,-0.0558 0,0 -0.385914,-0.06437 -0.865847,-0.141617 -0.479924,-0.07722 -0.994509,-0.171653 -1.192412,-0.167373 -0.19792,0.0049 -0.994519,-0.08154 -1.078629,-0.05581 -0.08413,0.02581 0.341395,0.399103 0.400777,0.939817 0.06433,0.540737 0.06433,0.686652 0.0792,0.793925 0.0147,0.107304 0.04461,0.356206 -0.277084,0.411983 -0.321603,0.05586 -0.559097,-0.171642 -0.67289,-0.205991 -0.113775,-0.03433 -0.252339,-0.120152 -0.351286,-0.304692 -0.09896,-0.18453 -0.128671,-0.454887 -0.173191,-0.519278 -0.04444,-0.06437 -0.148404,-0.08579 -0.217685,-0.339016 -0.06925,-0.2532 -0.638261,-0.639432 -0.742179,-0.798211 -0.103893,-0.158798 -0.197904,-0.656607 0.04453,-1.029959 0,0 -0.0396,-0.154498 -0.02974,-0.317572 0.0099,-0.163085 0.02472,-0.497804 -0.01479,-0.532154 -0.0396,-0.03431 -0.722364,-0.532138 -0.722364,-0.532138 0,0 -0.202856,0.04293 -0.346358,0 -0.143465,-0.04293 -0.633298,-0.30469 -0.806472,-0.446318 -0.173174,-0.141617 -0.474979,-0.399102 -0.351294,-0.901207 0.123691,-0.502092 0.732262,-0.926962 1.326013,-1.034256 0.593724,-0.107279 0.588762,0.291822 0.583825,0.304703 -0.0059,0.01288 0.410659,0.163081 0.588788,0.424851 0,0 0.08911,0.07298 0.0792,0.133035 0,0 0.326575,0.223167 0.440359,0.51927 0,0 0.554168,-0.51927 0.618487,-0.549306 0.06433,-0.02998 0.286959,-0.253196 0.489815,-0.321852 0.207812,-0.06867 0.37604,-0.137328 0.969765,-0.145926 0.593726,-0.0086 1.004401,-0.14591 1.187484,-0.150201 0.183074,-0.0049 0.786682,-0.08153 0.86583,-0.163081 0.0792,-0.08153 0.415639,-0.253188 0.945045,-0.356182 0.529389,-0.09871 1.415061,-0.22746 1.415061,-0.22746 0,0 0.123675,-0.0901 0.296858,-0.14161 0.173165,-0.05151 0.638279,-0.06867 0.707543,-0.09871 0.06433,-0.02999 0.262221,-0.141625 0.712472,-0.16308 0,0 0.08413,-0.03431 0.133592,-0.08582 0.04937,-0.0515 0.138529,-0.08581 0.173165,-0.09012 0.03467,-0.0049 0.08902,0.03862 0.08902,0.06007 0,0.02137 -0.03968,0.09013 -0.04444,0.09013 -0.0059,0 -0.113801,0.08583 -0.113801,0.08583 0,0 0.153401,-0.12447 0.192966,-0.175962 0.03951,-0.05151 0.113801,-0.05151 0.138546,-0.0172 0.02473,0.03446 0.02473,0.11158 -0.0059,0.133031 0,0 0.04444,0.0086 0.05447,0.05582 0.0085,0.04719 -0.06433,0.115853 -0.188036,0.184526 0,0 0.01487,0.06007 -0.0059,0.09013 -0.0198,0.03 -0.118764,0.133037 -0.108847,0.163081 0.0085,0.02999 0.118747,0.05151 0.113801,0.16736 -0.0059,0.115881 -0.05447,0.111587 -0.06943,0.111587 -0.01471,0 -0.07418,-0.08153 -0.07418,-0.08153 0,0 -0.04444,0.103 -0.277102,0.103 -0.232522,0 -0.697617,0.01288 -0.722363,0.01288 -0.02472,0 -0.628361,0.13304 -0.677844,0.154498 -0.04937,0.02136 -0.09404,-0.02575 -0.09404,-0.02575 0,0 -0.801545,0.44204 -1.424969,0.648025 -0.623425,0.205998 -0.643216,0.227431 -0.747109,0.236033 -0.103909,0.0086 -0.410676,-0.0049 -0.71248,0.06438 -0.301804,0.06867 -0.470041,0.175962 -0.598688,0.210294 -0.128638,0.03446 -0.667952,0.214576 -0.732262,0.236033 0,0 0.484877,0.214565 0.791636,0.377645 0.306766,0.163094 1.053874,0.18883 1.32603,0.102998 0.272131,-0.08582 0.296859,0.02575 0.331478,0.02575 0.03467,0 0.252331,-0.06007 0.311704,-0.02575 0.0594,0.03432 0.08421,0.06437 0.08421,0.06437 0,0 0.113801,-0.07299 0.158329,-0.0987 0.0396,-0.02582 0.376057,-0.261785 0.425521,-0.31329 0.04937,-0.05151 0.217703,-0.154484 0.232565,-0.163073 0.0147,-0.0087 0.0198,-0.0773 0.06917,-0.102992 0.04937,-0.02582 0.08902,-0.06438 0.12863,-0.05582 0.0396,0.0086 0.06433,-0.141603 0.118754,-0.137309 0.05932,0.0049 0.366123,-0.0773 0.450242,-0.04719 0,0 0.598688,-0.502107 1.212204,-0.81539 0.613516,-0.313269 0.895546,-0.493517 0.954928,-0.54929 0.05949,-0.05581 0.138521,-0.188836 0.361168,-0.291841 0.222648,-0.102992 0.400777,-0.141612 0.474987,-0.188823 0.07418,-0.04724 0.262239,-0.124441 0.326558,-0.145903 0.06433,-0.02137 0.113809,-0.150205 0.202874,-0.214585 0.08902,-0.06437 0.242422,-0.145898 0.51456,-0.296111 0.272122,-0.150197 2.439288,-0.858286 2.661901,-0.92266 0.222682,-0.06437 0.311712,-0.12875 0.371078,-0.15021 0.05932,-0.02137 0.282012,-0.15878 0.331494,-0.175963 0.04954,-0.01719 0.301829,-0.133023 0.301829,-0.133023 0,0 0.217686,-0.210283 0.361212,-0.266078 0.143475,-0.05582 0.286958,-0.0987 0.331469,-0.163071 0.03951,-0.06438 0.28203,-0.356183 0.331487,-0.377645 0.04937,-0.02582 0.118754,0.0172 0.138571,0 0.01997,-0.0172 0.168195,-0.111565 0.197877,-0.111565 0.02991,0 0.06935,-0.01727 0.08903,0 0.0198,0.01719 0.138572,-0.0087 0.183108,0.02137 0.04436,0.02999 0.04436,0.06008 0.04436,0.06008 0,0 0.08911,0.02998 0.113759,0.158778 v 0 c 0,0 0.138512,0.01274 0.138512,0.19311 0,0.180262 -0.138512,0.313283 -0.138512,0.313283 0,0 -0.148463,0.133038 -0.178138,0.218872 -0.02991,0.08581 -0.544259,0.278954 -0.648178,0.334733 -0.103858,0.05582 0.02473,0.248904 -0.138521,0.34332 -0.163291,0.0987 -0.475004,0.08583 -0.534377,0.04293 -0.05932,-0.04293 -0.173174,0.08581 -0.29685,0.128721 -0.1237,0.04293 -0.301803,-0.02582 -0.366105,0 -0.06433,0.02581 -1.692179,0.965616 -1.865336,1.124387 -0.173175,0.158799 -0.296876,0.261785 -0.534378,0.390528 -0.237476,0.128742 -0.841101,0.2961 -1.019221,0.369055 -0.178128,0.07297 -0.420576,0.429172 -0.549231,0.540738 -0.128612,0.11158 -0.445288,0.317577 -0.445288,0.317577 0,0 -0.34634,0.347602 -0.593724,0.742421 -0.24741,0.394821 -0.643207,0.819676 -0.643207,0.819676 0,0 0.277075,0.467776 0.301803,0.656605 0.02473,0.188816 -0.128646,0.283234 -0.128646,0.283234 l -0.915329,0.69093 0.470041,1.330359 c 0,0 -0.173149,0.31327 -0.667952,0.549326 0,0 0.148429,1.072859 0,2.111415 -0.148438,1.038539 0.08902,1.253111 0.183066,1.424775 0.08903,0.171662 0.306766,0.660886 0.331503,1.064304 0.02473,0.40338 -0.0792,0.79391 -0.08903,0.89261 -0.0085,0.0987 -0.02472,1.15872 0.07928,1.64366 0.103851,0.48494 0.138529,0.59652 0.247385,0.72526 0.108838,0.12876 0.18802,0.24033 0.18802,0.32617 0,0.0858 -0.03951,0.23602 -0.415623,0.42914 -0.376047,0.19309 -1.135511,0.61213 -1.135511,0.61213" style="fill:#d75455;fill-opacity:1;stroke:#000000;stroke-width:0.52388197;stroke-linecap:round;stroke-linejoin:round;stroke-miterlimit:4;stroke-dasharray:none;stroke-opacity:1" inkscape:export-xdpi="51.827873" inkscape:export-ydpi="51.827873"></path> <path style="fill:none;stroke:#000000;stroke-width:0.52388197;stroke-linecap:round;stroke-linejoin:round;stroke-miterlimit:4;stroke-dasharray:none;stroke-opacity:1" d="m 64.841754,104.89109 -0.426252,-0.90411 -0.504478,1.84593 -0.47754,-2.97427 -0.741739,4.18873 -0.648625,-5.29187 -0.650997,3.13559 h -0.872054" id="path4845-0" inkscape:connector-curvature="0" sodipodi:nodetypes="cccccccc" inkscape:export-xdpi="51.827873" inkscape:export-ydpi="51.827873"></path> <path style="fill:none;stroke:#000000;stroke-width:0.52388197;stroke-linecap:round;stroke-linejoin:miter;stroke-miterlimit:4;stroke-dasharray:none;stroke-opacity:1" d="m 64.841754,104.89109 22.875868,0.0595" id="path4943" inkscape:connector-curvature="0" sodipodi:nodetypes="cc" inkscape:export-xdpi="51.827873" inkscape:export-ydpi="51.827873"></path> <path style="fill:none;stroke:#000000;stroke-width:0.52425337;stroke-linecap:round;stroke-linejoin:round;stroke-miterlimit:4;stroke-dasharray:none;stroke-opacity:1" d="m 87.717622,104.95063 4.813019,0.0294 h 0.872042 l 0.65099,-3.1356 0.788594,5.29186 0.601782,-4.18872 0.477546,2.97425 0.504477,-1.84596 0.426256,0.90417 h 9.617362" id="path4845-0-5" inkscape:connector-curvature="0" sodipodi:nodetypes="cccccccccc" inkscape:export-xdpi="51.827873" inkscape:export-ydpi="51.827873"></path> <path style="fill:none;stroke:#000000;stroke-width:0.52388197;stroke-linecap:round;stroke-linejoin:round;stroke-miterlimit:4;stroke-dasharray:none;stroke-opacity:1" d="m 107.30545,104.98818 h 19.91171" id="path942" inkscape:connector-curvature="0" inkscape:export-xdpi="51.827873" inkscape:export-ydpi="51.827873" sodipodi:nodetypes="cc"></path> <path style="fill:none;stroke:#000000;stroke-width:0.52388197;stroke-linecap:round;stroke-linejoin:round;stroke-miterlimit:4;stroke-dasharray:none;stroke-opacity:1" d="m 28.444615,104.84407 17.028069,0.0324 0.825557,8.5e-4" id="path4873" inkscape:connector-curvature="0" sodipodi:nodetypes="ccc"></path> <path style="fill:none;stroke:#000000;stroke-width:0.52425337;stroke-linecap:butt;stroke-linejoin:miter;stroke-miterlimit:4;stroke-dasharray:none;stroke-opacity:1" d="m 106.46968,104.98004 0.86103,0.007" id="path2916" inkscape:connector-curvature="0"></path> <path inkscape:connector-curvature="0" id="path4894" d="m 110.9185,102.14397 c 0.15592,0.13523 0.82633,0.14878 0.96667,0.0271 -0.13702,0.29113 -0.25139,0.51956 -0.35216,0.74472 -0.0703,-0.017 -0.12731,-0.0312 -0.16756,-0.0415 -0.35337,-0.0902 -0.60286,-0.4778 -0.44695,-0.73027 v 0" style="fill:#ffffff;stroke:#000000;stroke-width:0.52388203;stroke-linecap:round;stroke-linejoin:round;stroke-miterlimit:4;stroke-dasharray:none;stroke-opacity:1"></path> <path id="path4725" d="m 37.271988,98.403091 c -0.14953,0.283431 -0.212498,0.665854 -0.110073,1.161743 0,0 -0.393674,0.573756 -0.196877,1.778226 0,0 -0.146216,-0.16379 -0.06746,0.72892 0.07078,0.88544 -0.244063,1.98341 -0.244063,1.98341 0,0 -0.07094,0.0283 -0.07094,0.0993 0,0 -0.4014,0.0566 -0.637574,0.0495 -0.236253,-0.007 -0.456561,0.0637 -0.598279,0.14156 -0.141638,0.0781 -0.275466,0.0923 -0.362028,0.10634 -0.08664,0.0213 -0.08664,0.12044 -0.02377,0.15581 0,0 -0.06288,0.24086 0.377974,0.13468 0,0 0.259764,0.0637 0.44875,-0.007 0.188904,-0.071 0.51961,-0.0992 0.558906,-0.0992 0,0 -0.118129,0.071 -0.03148,0.13466 0.08648,0.0709 0.369918,-0.0283 0.535232,-0.0211 0.157421,0 0.401484,-0.11347 0.432967,-0.18428 0,0 0.188824,-0.0919 0.157422,-0.2692 0,0 0.03929,-0.12027 0,-0.19133 0,0 0.173204,-0.5667 0.393674,-0.97034 0.228196,-0.41107 0.571373,-0.70771 0.461137,-1.62171 0,0 0.173122,-0.41075 0.165229,-0.97745 -0.0079,-0.559592 0.251955,-1.048433 0.251955,-1.048433 0,0 0.03148,-0.06375 0.07078,-0.163012 0.448832,0.240868 1.141565,0.495889 1.999608,0.418118 0,0 0.393676,0.361217 0.818753,0.431867 0,0 -0.01571,0.0994 0.125934,0.18429 0.141722,0.078 0.456561,0.17717 0.550934,0.28335 0.08664,0.0991 0.188987,1.28225 1.574533,1.65756 0,0 -0.01571,0.0993 0.212498,0.15595 0.22047,0.0566 0.952576,0.28336 1.047111,0.33993 0,0 -0.02377,0.0637 0.07867,0.0852 0,0 -0.05507,0.078 0.0078,0.14164 0,0 -0.253801,0.5593 -0.387551,0.67244 -0.141718,0.11356 -0.346488,0.45357 -0.480153,0.62361 -0.133829,0.16981 -0.165474,0.22646 -0.06306,0.38235 0.110235,0.15596 0.684923,0.15596 0.952579,0.007 0.259683,-0.15597 0.511637,-0.68019 0.645465,-0.82879 0.125935,-0.14884 0.58451,-0.70087 0.52146,-0.93468 -0.06297,-0.23374 -0.267736,-0.53127 -0.46445,-0.53127 0,0 -0.0079,-0.0993 -0.133828,-0.13483 0,0 -0.157505,-0.18397 -0.314923,-0.36113 -0.149531,-0.17013 -0.275549,-0.33289 -0.480156,-0.40396 0,0 0,-0.1061 -0.08665,-0.14155 0,0 0.03148,-0.26215 -0.05507,-0.35409 0,0 0.306949,-0.24096 0.960389,-0.0498 0.653438,0.1914 1.314605,0.79341 1.975933,0.90687 0.653358,0.11332 0.952498,0.0283 0.952498,0.0283 0,0 0.370082,-0.0283 0.708515,0.0638 0.330625,0.0851 0.905231,0.22678 1.479999,0.2551 0,0 0.236172,0.14173 0.60609,0.17718 0,0 0.881719,0.21966 1.054842,0.43907 0.181175,0.21958 0.267656,0.29776 0.267656,0.29776 0,0 -0.324953,0.3822 -0.309251,0.58761 0.01571,0.19838 -0.141719,0.44636 -0.30695,0.55254 -0.157502,0.10636 -0.267737,0.31865 0.07859,0.43221 0.346488,0.11314 0.999845,0.0778 1.267501,-0.0568 0.267738,-0.12739 0.228199,-0.59503 0.37781,-0.85007 0.141719,-0.2479 0.545586,-0.92762 0.151993,-1.11183 0,0 -0.204769,-0.41811 -0.739999,-0.34706 0,0 -0.03148,-0.17715 -0.275547,-0.24797 0,0 -0.20477,-0.1843 -0.456561,-0.23384 -0.259764,-0.0567 -0.74,-0.52421 -1.149374,-0.70138 -0.409376,-0.17012 -1.125783,-0.38241 -1.78695,-0.38945 0,0 -0.22047,-0.12059 -0.409375,-0.0783 0,0 -0.165312,-0.0566 -0.244063,-0.0708 0,0 -0.582578,-0.41811 -1.235855,-0.956413 -0.558985,-0.46028 -1.172967,-0.857105 -1.668825,-1.041394 v 0 c 0,0 0.0079,-0.424914 0.09437,-1.353 0.07875,-0.927846 -0.464451,-1.501598 -0.464451,-1.501598 -0.196715,-0.396905 -1.086325,-0.247986 -1.086325,-0.247986 -0.921176,-0.311682 -1.991718,0.183969 -1.991718,0.183969 -1.125621,-0.332888 -1.786952,0.269271 -1.786952,0.269271 0,0 -0.802885,-0.169965 -1.64531,0.623525 -0.110235,-0.0071 -0.236169,0 -0.377971,0.02833 0,0 -0.637575,-0.722591 -1.416869,-0.630407 -0.29914,0.02833 -0.613982,0.212296 -0.818749,0.488609 -0.401568,0.177167 -0.566795,0.56687 -0.566795,0.56687 -0.08648,-0.09226 -0.09437,-0.240943 -0.09437,-0.240943 0,0 -0.165474,0.474526 0.04719,0.779247 0.220307,0.304563 0.700623,0.375305 0.700623,0.375305 v 0 c 0.07078,0.09914 0.165311,0.19837 0.275546,0.297514 0,0 0.03148,0.03533 0.118045,0.03533 0.05508,0 0.102261,0.04999 0.133664,0.106752 z m 8.076865,-0.14172 c 0,0 -0.173124,-0.25503 -0.503747,-0.106107 0,0 -0.598281,-0.10643 -1.039059,-0.814621 L 43.7273,97.198845 c 0.834452,-0.01416 1.275312,-0.354093 1.275312,-0.354093 0,0 0.03141,-0.02833 0.196714,0.502932 0.165232,0.524216 0.149531,0.913687 0.149531,0.913687 z" inkscape:connector-curvature="0" style="clip-rule:evenodd;fill:#d75455;fill-opacity:1;fill-rule:evenodd;stroke:#000000;stroke-width:0.52399999;stroke-miterlimit:4;stroke-dasharray:none;stroke-opacity:1" sodipodi:nodetypes="cccccccccccccccccccccccccccccccccccccccccccccccccccccccccccccccccccccccccccccccccccscccccccccc"></path> </g> </svg> 