<?xml version="1.0" encoding="UTF-8" standalone="no"?> <!-- Created with Inkscape (http://www.inkscape.org/) --> <svg xmlns:dc="http://purl.org/dc/elements/1.1/" xmlns:cc="http://creativecommons.org/ns#" xmlns:rdf="http://www.w3.org/1999/02/22-rdf-syntax-ns#" xmlns:svg="http://www.w3.org/2000/svg" xmlns="http://www.w3.org/2000/svg" xmlns:sodipodi="http://sodipodi.sourceforge.net/DTD/sodipodi-0.dtd" xmlns:inkscape="http://www.inkscape.org/namespaces/inkscape" width="348.54675" height="95.728317" viewBox="0 0 92.219669 25.328118" id="svg3798" inkscape:version="0.92.2 (5c3e80d, 2017-08-06)" sodipodi:docname="healthyFighterSimpleV2.svg"> <defs id="defs3792"></defs> <metadata id="metadata3795"></metadata> <g inkscape:label="Calque 1" inkscape:groupmode="layer" id="layer1" transform="translate(-41.581792,-85.907805)"> <path style="fill:none;stroke:#000000;stroke-width:0.52388197;stroke-linecap:round;stroke-linejoin:round;stroke-miterlimit:4;stroke-dasharray:none;stroke-opacity:1" d="m 65.502581,108.32312 0.688349,0.002" id="path970" inkscape:connector-curvature="0" inkscape:export-xdpi="51.827873" inkscape:export-ydpi="51.827873"></path> <path style="fill:none;stroke:#000000;stroke-width:0.52388197;stroke-linecap:round;stroke-linejoin:round;stroke-miterlimit:4;stroke-dasharray:none;stroke-opacity:1" d="m 49.454818,108.30809 16.047763,0.0148" id="path968" inkscape:connector-curvature="0" sodipodi:nodetypes="cc" inkscape:export-xdpi="51.827873" inkscape:export-ydpi="51.827873"></path> <g transform="matrix(0.22006269,0,0,0.19142857,311.68905,29.557988)" id="g4990" inkscape:export-xdpi="51.827873" inkscape:export-ydpi="51.827873" style="fill:#d65456;fill-opacity:1;stroke:#000000;stroke-width:2.5524478;stroke-linecap:round;stroke-linejoin:round;stroke-miterlimit:4;stroke-dasharray:none;stroke-opacity:1"> <path sodipodi:nodetypes="ccccccccccccsccscssscccccccsscccccccccccccc" inkscape:connector-curvature="0" id="path860" d="m -970.14299,411.83184 c 0.88307,-0.86287 1.64404,-1.69156 1.99853,-2.44207 0.94493,-2.00059 2.13971,-4.58531 1.16731,-5.55794 -0.97261,-0.97261 -1.41737,1.19524 -2.22321,2.00107 -0.80582,0.80582 -3.83509,1.33388 -6.33609,1.77843 -2.50121,0.44479 -5.55815,1.83405 -9.78267,1.1115 -4.22405,-0.72231 -14.00632,-2.88993 -17.11888,-3.55687 -3.1128,-0.66695 -2.5571,-2.16786 -6.5589,-2.61242 -1.6655,-0.18502 -4.1493,-0.70723 -6.6179,-1.29382 0.9377,-1.90473 2.1539,-4.40547 2.7828,-5.82084 1.1117,-2.50122 2.7236,-3.16816 2.39,-5.72497 -0.3336,-2.5568 -0.3611,-5.69728 0.2782,-6.3363 0.639,-0.63926 2.3898,0.11138 3.1679,0.11138 0.7782,0 2.3903,1.83382 3.3906,2.11203 1.0003,0.27776 4.27966,0.50037 5.83596,0.22216 1.5565,-0.27776 4.94682,-2.00106 4.94682,-4.27964 0,-2.27883 1.3339,-3.33495 0.83373,-4.39109 -0.50038,-1.05589 -1.05588,-3.11254 -2.27881,-3.89069 -1.22294,-0.77813 -4.11304,-1.44531 -5.72514,-1.44531 -1.61186,0 -4.39096,0.77836 -5.66946,0.77836 -1.2785,0 -2.8972,0.69397 -3.2794,1.61189 -0.5557,1.33411 -3.6676,0.16701 -3.1679,-1.77845 0.9449,-1.72284 2.0569,-4.66861 2.7236,-6.22488 0.667,-1.55651 4.3355,-5.61376 6.2251,-6.55894 1.89,-0.94469 5.39166,-2.112 7.72586,-3.44613 2.33466,-1.33388 5.5861,-2.97344 7.28149,-1.27829 1.69516,1.69517 2.72336,2.61242 3.77971,3.05696 1.05614,0.44455 1.61189,1.66724 2.16762,1.66724 0.55576,0 0.83376,-0.88932 0.83376,-1.55627 v -1.72307 c 0,0 1.8338,1.94547 2.33418,1.44531 0.50038,-0.50015 -0.36126,-1.13941 -1.00031,-1.77866 -0.63902,-0.63904 -1.97316,-2.4177 -2.4456,-2.89017 -0.47246,-0.47224 -2.16738,-1.72307 -3.33473,-1.94547 -1.16731,-0.22238 -5.05822,-1.00052 -7.7816,-0.33358 -2.72342,0.66695 -12.20038,2.52889 -13.50648,3.83533 -1.3061,1.30619 -8.1703,7.94817 -9.3932,9.67103 -1.2227,1.72305 -3.5018,3.16815 -5.2802,4.05748 -1.7784,0.88956 -6.9476,4.05749 -11.6718,7.83698 -4.7245,3.7795 -9.2265,9.72686 -10.8942,13.0062 -1.6673,3.27935 -4.0019,5.94714 -4.78,7.39222 -0.7782,1.44529 -1.3764,5.07582 -5.4338,5.96493 -3.6523,0.80072 -10.7805,4.06608 -12.5803,8.83855" style="fill:#d65456;fill-opacity:1;stroke:#000000;stroke-width:2.5524478;stroke-linecap:round;stroke-linejoin:round;stroke-miterlimit:4;stroke-dasharray:none;stroke-opacity:1"></path> </g> <path sodipodi:nodetypes="cssssssssscccsscscssscssssssscssccsssscccscsssccsccsssscsscscsssscssscsssscssssccssssccsssssssssscsccsssscccscsscssssssscscsccccscssssssc" inkscape:connector-curvature="0" id="path4923" d="m 120.26401,108.42912 c 0.03,-0.0577 0.62719,-0.71278 0.66796,-0.83432 0.0407,-0.12157 0.0523,-0.25834 0.20959,-0.45586 0.15721,-0.19754 0.30861,-0.50142 0.27946,-0.8357 -0.0291,-0.33432 -0.10476,-0.90154 -0.25617,-1.36751 -0.1514,-0.46598 -0.40756,-1.34727 -0.43667,-1.81325 -0.0291,-0.46595 -0.23293,-1.00282 -0.35518,-1.18517 -0.12223,-0.18235 -0.20961,-0.37481 -0.23871,-0.5622 -0.0293,-0.1874 -0.007,-0.39506 -0.0757,-0.5369 -0.0698,-0.1418 -0.31442,-1.012961 -0.39009,-1.07881 -0.0757,-0.06592 -0.34355,-0.825576 -0.34355,-1.240911 h -0.0931 l 0.0465,-0.698941 c 0,0 -0.12223,-0.0057 -0.12223,-0.08105 0,-0.07597 0,-0.344383 -0.13389,-0.450767 -0.13396,-0.106374 -0.23872,-0.308954 -0.23872,-0.308954 0,0 -0.63469,-0.156996 -0.68708,-0.156996 -0.0524,0 -0.0873,-0.06586 -0.0873,-0.06586 0,0 -0.45414,-0.07597 -1.01892,-0.167138 -0.56477,-0.09113 -1.17033,-0.202587 -1.40322,-0.197535 -0.23291,0.0057 -1.17034,-0.09624 -1.26932,-0.06587 -0.099,0.03046 0.40175,0.471028 0.47163,1.109186 0.0757,0.638185 0.0757,0.810396 0.0932,0.937001 0.0173,0.126642 0.0525,0.4204 -0.32607,0.486228 -0.37846,0.06592 -0.65794,-0.202575 -0.79185,-0.243113 -0.13389,-0.04051 -0.29695,-0.141805 -0.41339,-0.359601 -0.11646,-0.217786 -0.15142,-0.536865 -0.20381,-0.61286 -0.0523,-0.07597 -0.17464,-0.10126 -0.25617,-0.400112 -0.0815,-0.29883 -0.7511,-0.754667 -0.87339,-0.942059 -0.12226,-0.187416 -0.23289,-0.774937 0.0524,-1.215573 0,0 -0.0466,-0.182341 -0.035,-0.374802 0.0116,-0.192476 0.0291,-0.587516 -0.0174,-0.628057 -0.0466,-0.04049 -0.85007,-0.628036 -0.85007,-0.628036 0,0 -0.23872,0.05067 -0.40759,0 -0.16883,-0.05067 -0.74526,-0.3596 -0.94905,-0.526751 -0.20379,-0.167138 -0.55895,-0.471026 -0.4134,-1.063617 0.14556,-0.592576 0.86172,-1.094014 1.56044,-1.220644 0.69869,-0.126611 0.69285,0.344412 0.68704,0.359615 -0.007,0.0152 0.48326,0.192471 0.69288,0.501415 0,0 0.10487,0.08613 0.0932,0.15701 0,0 0.38431,0.263385 0.51821,0.612849 0,0 0.65214,-0.612849 0.72783,-0.648298 0.0757,-0.03539 0.33769,-0.298826 0.57641,-0.379854 0.24455,-0.08105 0.44252,-0.162077 1.14121,-0.172224 0.69869,-0.01012 1.18197,-0.172205 1.39742,-0.17727 0.21544,-0.0057 0.92576,-0.09623 1.0189,-0.19247 0.0932,-0.09623 0.48912,-0.298817 1.11212,-0.420371 0.62298,-0.116496 1.66523,-0.268451 1.66523,-0.268451 0,0 0.14554,-0.106343 0.34934,-0.167131 0.20378,-0.0608 0.75112,-0.08105 0.83263,-0.116495 0.0757,-0.0354 0.30858,-0.167148 0.83843,-0.192469 0,0 0.099,-0.04049 0.15721,-0.101292 0.0581,-0.06079 0.16302,-0.101282 0.20378,-0.106355 0.0408,-0.0057 0.10476,0.04557 0.10476,0.0709 0,0.02522 -0.0467,0.106375 -0.0523,0.106375 -0.007,0 -0.13392,0.101303 -0.13392,0.101303 0,0 0.18052,-0.1469 0.22708,-0.207672 0.0465,-0.0608 0.13392,-0.0608 0.16304,-0.02029 0.0291,0.04067 0.0291,0.131689 -0.007,0.157005 0,0 0.0523,0.01012 0.0641,0.06588 0.01,0.05569 -0.0757,0.136731 -0.22128,0.217781 0,0 0.0175,0.07089 -0.007,0.106365 -0.0233,0.03541 -0.13976,0.157013 -0.12809,0.19247 0.01,0.0354 0.13974,0.0608 0.13392,0.197521 -0.007,0.136764 -0.0641,0.131697 -0.0817,0.131697 -0.0173,0 -0.0873,-0.09623 -0.0873,-0.09623 0,0 -0.0523,0.121563 -0.32609,0.121563 -0.27363,0 -0.82095,0.0152 -0.85007,0.0152 -0.0291,0 -0.73945,0.157016 -0.79768,0.18234 -0.0581,0.02521 -0.11067,-0.03039 -0.11067,-0.03039 0,0 -0.94325,0.521702 -1.67689,0.764809 -0.73364,0.243122 -0.75693,0.268418 -0.87919,0.27857 -0.12228,0.01012 -0.48328,-0.0057 -0.83844,0.07598 -0.35516,0.08105 -0.55314,0.207673 -0.70453,0.248192 -0.15138,0.04067 -0.78604,0.253246 -0.86172,0.27857 0,0 0.5706,0.253233 0.93159,0.445702 0.361,0.192485 1.24019,0.222859 1.56046,0.121559 0.32024,-0.101292 0.34934,0.03039 0.39008,0.03039 0.0408,0 0.29694,-0.07089 0.36681,-0.03039 0.0699,0.0405 0.0991,0.07597 0.0991,0.07597 0,0 0.13392,-0.08614 0.18632,-0.116482 0.0466,-0.03047 0.44254,-0.308963 0.50075,-0.36975 0.0581,-0.06079 0.25619,-0.182324 0.27368,-0.19246 0.0173,-0.01022 0.0233,-0.09124 0.0814,-0.121553 0.0581,-0.03047 0.10476,-0.07598 0.15137,-0.06588 0.0466,0.01012 0.0757,-0.167123 0.13975,-0.162055 0.0698,0.0057 0.43085,-0.09123 0.52984,-0.05569 0,0 0.70453,-0.592593 1.42651,-0.962335 0.72198,-0.369724 1.05387,-0.582455 1.12375,-0.64828 0.07,-0.06587 0.16301,-0.222866 0.42502,-0.344435 0.26201,-0.121552 0.47163,-0.167131 0.55896,-0.22285 0.0873,-0.05576 0.3086,-0.146868 0.38429,-0.172198 0.0757,-0.02522 0.13393,-0.177273 0.23874,-0.253256 0.10476,-0.07598 0.28528,-0.172191 0.60553,-0.349473 0.32023,-0.177265 2.87053,-1.012963 3.1325,-1.088938 0.26205,-0.07597 0.36682,-0.151952 0.43668,-0.17728 0.0698,-0.02522 0.33187,-0.187394 0.3901,-0.207673 0.0583,-0.02029 0.35519,-0.156996 0.35519,-0.156996 0,0 0.25617,-0.24818 0.42507,-0.314029 0.16884,-0.06588 0.33769,-0.116482 0.39007,-0.192459 0.0465,-0.07598 0.33189,-0.420372 0.39009,-0.445702 0.0581,-0.03047 0.13975,0.02029 0.16307,0 0.0235,-0.02029 0.19793,-0.131671 0.23286,-0.131671 0.0352,0 0.0816,-0.02038 0.10477,0 0.0233,0.02029 0.16307,-0.01022 0.21548,0.02522 0.0522,0.0354 0.0522,0.0709 0.0522,0.0709 0,0 0.10487,0.03539 0.13387,0.187392 v 0 c 0,0 0.163,0.01504 0.163,0.227911 0,0.212748 -0.163,0.369742 -0.163,0.369742 0,0 -0.17471,0.157012 -0.20963,0.258315 -0.0352,0.101282 -0.64048,0.329226 -0.76277,0.395057 -0.12222,0.06588 0.0291,0.29376 -0.16301,0.405191 -0.19216,0.116485 -0.55898,0.101303 -0.62885,0.05067 -0.0698,-0.05067 -0.20379,0.101281 -0.34933,0.151919 -0.14557,0.05067 -0.35516,-0.03047 -0.43083,0 -0.0757,0.03046 -1.99134,1.139632 -2.19511,1.327017 -0.20379,0.187417 -0.34936,0.308962 -0.62885,0.460906 -0.27946,0.151943 -0.9898,0.349462 -1.19941,0.435564 -0.20962,0.08612 -0.49493,0.506515 -0.64633,0.638187 -0.15135,0.131688 -0.52401,0.374809 -0.52401,0.374809 0,0 -0.40757,0.410244 -0.69869,0.876216 -0.29115,0.465972 -0.75692,0.967393 -0.75692,0.967393 0,0 0.32606,0.552076 0.35516,0.774934 0.0291,0.222844 -0.15139,0.334277 -0.15139,0.334277 l -1.07715,0.815445 0.55314,1.570109 c 0,0 -0.20376,0.369726 -0.78604,0.648323 0,0 0.17467,1.266202 0,2.491921 -0.17468,1.2257 0.10476,1.47894 0.21543,1.68154 0.10477,0.20259 0.361,0.77998 0.39011,1.2561 0.0291,0.47608 -0.0932,0.93699 -0.10477,1.05348 -0.01,0.11645 -0.0291,1.36753 0.0933,1.93987 0.12221,0.57232 0.16302,0.70402 0.29112,0.85595 0.12808,0.15196 0.22126,0.28364 0.22126,0.38495 0,0.10118 -0.0465,0.27856 -0.4891,0.50648 -0.44253,0.22789 -1.33626,0.72245 -1.33626,0.72245" style="fill:#d75455;fill-opacity:1;stroke:#000000;stroke-width:0.52388197;stroke-linecap:round;stroke-linejoin:round;stroke-miterlimit:4;stroke-dasharray:none;stroke-opacity:1" inkscape:export-xdpi="51.827873" inkscape:export-ydpi="51.827873"></path> <path style="fill:none;stroke:#000000;stroke-width:0.52388197;stroke-linecap:round;stroke-linejoin:round;stroke-miterlimit:4;stroke-dasharray:none;stroke-opacity:1" d="m 71.276649,108.32413 -0.501609,-1.06705 -0.593666,2.1786 -0.561964,-3.51028 -0.872871,4.9436 -0.763296,-6.24554 -0.766088,3.70067 H 66.19093" id="path4845-0" inkscape:connector-curvature="0" sodipodi:nodetypes="cccccccc" inkscape:export-xdpi="51.827873" inkscape:export-ydpi="51.827873"></path> <path style="fill:none;stroke:#000000;stroke-width:0.52388197;stroke-linecap:round;stroke-linejoin:round;stroke-miterlimit:4;stroke-dasharray:none;stroke-opacity:1" d="m 71.276649,108.32413 h 5.574587" id="path4943" inkscape:connector-curvature="0" sodipodi:nodetypes="cc" inkscape:export-xdpi="51.827873" inkscape:export-ydpi="51.827873"></path> <path style="fill:none;stroke:#000000;stroke-width:0.52425337;stroke-linecap:round;stroke-linejoin:round;stroke-miterlimit:4;stroke-dasharray:none;stroke-opacity:1" d="m 98.196754,108.3944 5.663916,0.0347 h 1.02621 l 0.76608,-3.70067 0.92801,6.24552 0.70817,-4.94358 0.56197,3.51025 0.59367,-2.17863 0.50161,1.06711 h 11.31762" id="path4845-0-5" inkscape:connector-curvature="0" sodipodi:nodetypes="cccccccccc" inkscape:export-xdpi="51.827873" inkscape:export-ydpi="51.827873"></path> <path style="fill:none;stroke:#000000;stroke-width:0.52388197;stroke-linecap:round;stroke-linejoin:round;stroke-miterlimit:4;stroke-dasharray:none;stroke-opacity:1" d="m 121.27868,108.43872 h 12.2571" id="path942" inkscape:connector-curvature="0" inkscape:export-xdpi="51.827873" inkscape:export-ydpi="51.827873"></path> <path style="fill:none;stroke:#000000;stroke-width:0.52388197;stroke-linecap:round;stroke-linejoin:round;stroke-miterlimit:4;stroke-dasharray:none;stroke-opacity:1" d="m 41.847464,108.26863 6.635846,0.0382 0.971508,10e-4" id="path4873" inkscape:connector-curvature="0" sodipodi:nodetypes="ccc"></path> <path style="fill:none;stroke:#000000;stroke-width:0.52425337;stroke-linecap:butt;stroke-linejoin:miter;stroke-miterlimit:4;stroke-dasharray:none;stroke-opacity:1" d="m 76.851262,108.32415 21.345492,0.0702" id="path2914" inkscape:connector-curvature="0"></path> <path style="fill:none;stroke:#000000;stroke-width:0.52425337;stroke-linecap:butt;stroke-linejoin:miter;stroke-miterlimit:4;stroke-dasharray:none;stroke-opacity:1" d="m 120.264,108.4291 1.01325,0.009" id="path2916" inkscape:connector-curvature="0"></path> <path inkscape:connector-curvature="0" id="path4894" d="m 85.411346,105.41266 c 0.18349,0.15961 0.972415,0.1756 1.137572,0.0319 -0.16124,0.34359 -0.295831,0.61319 -0.414423,0.87893 -0.0827,-0.0201 -0.149817,-0.0368 -0.197176,-0.049 -0.415852,-0.10644 -0.709437,-0.56391 -0.525973,-0.86187 v 0" style="fill:#ffffff;stroke:#000000;stroke-width:0.52388203;stroke-linecap:round;stroke-linejoin:round;stroke-miterlimit:4;stroke-dasharray:none;stroke-opacity:1"></path> <path id="path1426" style="clip-rule:evenodd;fill:#d75455;fill-opacity:1;fill-rule:evenodd;stroke:#000000;stroke-width:0.52399999;stroke-linecap:round;stroke-linejoin:round;stroke-miterlimit:4;stroke-dasharray:none" d="m 60.122406,106.77993 c 0.377886,-0.66451 0.66054,-2.64105 0.66054,-2.64105 0.513119,-0.59456 -0.304853,-1.07193 -0.304853,-1.07193 -0.191439,-0.46871 -1.036791,-1.08849 -1.036791,-1.08849 l -0.02008,-0.0335 v -0.008 l -0.03024,-0.0251 v -0.008 l -0.02008,-0.0253 v -0.008 l -0.03013,-0.0255 v 0 l -0.02008,-0.0335 h -0.01016 l -0.02008,-0.0251 v -0.008 l -0.03052,-0.0251 v 0 l -0.02008,-0.0252 -0.01003,-0.008 -0.01003,-0.008 -0.02008,-0.0166 -0.02008,-0.0168 v -0.008 l -0.03024,-0.0251 v 0 l -0.02008,-0.0166 -0.01003,-0.008 c -0.01004,-0.0167 -0.03013,-0.0251 -0.05021,-0.0419 v 0 l -0.03013,-0.0251 v 0 l -0.03024,-0.0166 v 0 l -0.02008,-0.017 -0.01016,-0.008 -0.02008,-0.008 -0.01003,-0.008 -0.02008,-0.008 v -0.008 l -0.03024,-0.0167 v 0 l -0.03056,-0.0168 v 0 l -0.03024,-0.0166 v 0 l -0.02008,-0.0167 h -0.01006 l -0.02008,-0.008 v -0.008 l -0.03024,-0.008 -0.01003,-0.008 c -0.01003,0 -0.03024,-0.009 -0.04027,-0.0167 l -0.01003,-0.008 h -0.01003 l -0.02008,-0.008 c -0.0202,-0.009 -0.04028,-0.0172 -0.07041,-0.0252 l -0.03024,-0.0167 -0.02008,-0.008 h -0.01003 l -0.0204,-0.008 v 0 h -0.0098 l -0.02008,-0.008 -0.04061,-0.008 -0.0099,-0.008 h -0.01016 l -0.01003,-0.008 c -0.02007,0 -0.04014,-0.008 -0.0503,-0.008 l -0.0402,-0.009 h -0.01003 v -0.008 h -0.02008 v 0 -0.0255 -0.0166 -0.0168 -0.0418 -0.0168 -0.0419 0 -0.0252 0 -0.0587 -0.0334 l -0.01003,-0.0924 v -0.0335 -0.0335 -0.008 -0.0251 l -0.01003,-0.0252 v -0.008 -0.008 -0.0167 -0.0167 -0.0167 -0.008 0 -0.008 -0.008 0 l -0.01003,-0.008 v 0 -0.0167 0 0 0 c 0.0301,-0.30157 0.06033,-0.762198 0.06033,-0.762198 0.170945,-0.703212 -0.01003,-1.247651 -0.01003,-1.247651 -0.02019,-0.217847 -0.24175,-0.786925 -0.24175,-0.786925 0.02009,-0.184459 -0.08044,-0.670107 -0.08044,-0.670107 v 0 l 1.06e-4,-0.0084 c 0.261718,-0.175613 0.0503,-0.419199 0.0503,-0.418199 0.08043,-0.133755 -0.01016,-0.293003 -0.01016,-0.293003 0.0604,-0.267985 -0.0099,-0.929532 -0.0099,-0.929532 0.100531,-0.309746 -0.47294,-1.364849 -0.47294,-1.364849 0,-0.05851 -0.181084,-0.427238 -0.291971,-0.636334 -0.120615,-0.209386 -0.191018,-0.343236 -0.362365,-0.829167 -0.170931,-0.493733 -0.533305,-0.90432 -0.533305,-0.90432 0,0 -0.01005,-0.158866 -0.100946,-0.334958 -0.09038,-0.175705 -0.32175,-1.063281 -0.36195,-1.414985 -0.03044,-0.351697 -0.2315,-0.862558 -0.2315,-0.862558 0.01004,-0.192541 -0.120719,-0.368345 -0.120719,-0.368345 0.07038,-0.06688 0.0503,-0.201014 0.0503,-0.201014 0.100563,-0.1505 0.120613,-0.343232 0.120613,-0.343232 0.03013,-0.100461 0.06036,-0.259615 0.211516,-0.443694 0.150849,-0.184271 0.704133,-0.837348 0.412586,-1.080314 -0.291963,-0.234408 -0.684464,-0.04186 -0.684464,-0.04186 0.170931,-0.719864 -0.855398,-0.510858 -1.11723,-0.267891 -0.261736,0.242872 -0.704561,0.854184 -0.795041,1.18914 -0.09049,0.326587 -0.42262,0.602946 -0.45285,0.854187 -0.04028,0.251053 0.231288,0.460439 0.231288,0.460439 -0.05033,0.06697 -0.09049,0.167526 -0.07041,0.42695 0.01005,0.259706 0.221562,0.778935 0.322096,1.440382 0.110678,0.653079 0.352327,1.029892 0.352327,1.029892 -0.03013,0.167617 0.09048,0.259617 0.09048,0.259617 0,0 0.372419,1.00468 0.392499,1.691625 0.01005,0.678194 -0.29197,1.565961 -0.22125,2.327771 0.08045,0.753442 0.432756,0.979572 0.482986,1.231122 0.04017,0.242929 0.261736,0.251429 0.261736,0.251429 0,0 0.211217,0.828785 0.01016,1.222534 -0.201508,0.401746 -0.161308,0.644709 -0.161308,0.644709 -0.221286,0.259522 -0.251796,0.510571 -0.251796,0.510571 -0.533233,0.368728 -0.493033,1.147378 -0.493033,1.147378 -0.01003,0.008 -0.02006,0.0171 -0.02006,0.0251 v 0 l -0.03023,0.0335 v 0 c 0,0.0168 -0.0099,0.0256 -0.02008,0.0336 v 0 c -0.01001,0.025 -0.02006,0.0504 -0.03009,0.0671 v 0 c -0.01018,0.0167 -0.01018,0.0255 -0.02021,0.0335 v 0.008 l -0.01003,0.0252 v 0.008 l -0.01003,0.0251 -0.01003,0.0168 -0.01003,0.0168 v 0.0167 l -0.01003,0.0251 v 0 0 c 0,0 -0.433088,0.27626 -0.342178,0.7873 0.09048,0.51885 0.160888,0.94609 0.160888,1.33118 0,0.38509 0.211524,0.72004 0.211524,0.72004 0,0 -0.260309,1.51956 -0.189309,2.4403 l 0.126392,0.86615 -0.161354,0.68485 1.408437,-0.004 -0.132289,-0.55022 0.157483,-0.86234 m -1e-6,-2e-5 c 0.09734,-0.58312 0.254185,-1.46501 0.108826,-1.87929 l -0.01003,-0.0502 -0.01003,-0.008 c 0.774951,0.13414 1.107088,-0.25133 1.107088,-0.25133 -0.01,0.0757 -0.0402,0.12576 -0.0402,0.12576 0.211654,-0.12576 0.150844,-0.38509 0.150844,-0.38509 l 0.07071,-0.0671 c 0.100529,-0.0754 0.100529,-0.15068 0.100529,-0.18418 0,-0.0335 0,-0.15086 0.08044,-0.18436 0.0704,-0.0251 0.251798,-0.0753 0.271878,-0.10883 0.03015,-0.0251 -0.06033,-0.15926 -0.06033,-0.15926 0,0 0.02007,0 0.0503,-0.0252 0.02006,-0.0251 0.01003,-0.0669 0.01003,-0.0669 0.05021,0 0.08044,-0.0251 0.08044,-0.0251 0,0 -0.01015,-0.0836 0.120608,-0.19273 0.13108,-0.10864 0.12105,-0.26761 0.05064,-0.35161 -0.0706,-0.092 -0.392351,-0.15896 -0.422931,-0.42694 -0.01015,-0.092 0.03046,-0.16761 0.08076,-0.23451 h 0.01003 c 0,0.009 0.01005,0.0168 0.02008,0.0168 v 0 l 0.01016,0.0166 v 0 c 0.01,0.008 0.02015,0.0171 0.0402,0.0251 v 0 l 0.01003,0.008 v 0.008 l 0.02008,0.008 0.01003,0.008 0.01003,0.008 v 0 c 0.01003,0.009 0.03023,0.0176 0.04026,0.0256 v 0 c 0.02018,0 0.0301,0.009 0.04026,0.0167 h 0.01003 l 0.01003,0.008 h 0.01003 c 0.02019,0.0168 0.06033,0.0255 0.09049,0.0335 v 0 l 0.01042,0.008 v 0 c 0.05033,0.0168 0.09057,0.0256 0.130765,0.0336 h 0.01003 l 0.01003,0.008 v 0 h 0.02008 v 0 l 0.02005,0.008 h 0.01016 0.01003 0.01016 v 0 h 0.01003 c 0.02011,0.009 0.05033,0.009 0.07041,0.0167 h 0.02006 v 0 h 0.01003 v 0 h 0.01003 0.02005 l 0.01045,0.008 h 0.0098 0.01037 0.01016 0.01003 v 0 0 0 c 0.379015,1.27351 1.590169,0.9965 1.590169,0.9965 -0.13107,0.25115 -0.11056,0.82918 -0.1612,1.02143 -0.04537,0.17388 -0.277717,1.65271 -0.455869,2.18126 l -0.07655,0.62587 -0.330735,0.69455 c 0.0016,0.10415 0.741567,0.0331 1.256774,0.0331 L 60.056271,106.78" inkscape:connector-curvature="0" sodipodi:nodetypes="cccccccccccccccccccccccccccccccccccccccccccccccccccccccccccccccsccccccccccccccccccccccccccccccccccccccccccccccccccccccccccccsccccccccccccccccccccccccccccccccccccccccccccccccccccccccccccccccccccccccccccccccccccccccccccccccccccccccccccccccsccccccccccc"></path> </g> </svg> 