<?xml version="1.0" encoding="UTF-8" standalone="no"?> <!-- Created with Inkscape (http://www.inkscape.org/) --> <svg xmlns:dc="http://purl.org/dc/elements/1.1/" xmlns:cc="http://creativecommons.org/ns#" xmlns:rdf="http://www.w3.org/1999/02/22-rdf-syntax-ns#" xmlns:svg="http://www.w3.org/2000/svg" xmlns="http://www.w3.org/2000/svg" xmlns:sodipodi="http://sodipodi.sourceforge.net/DTD/sodipodi-0.dtd" xmlns:inkscape="http://www.inkscape.org/namespaces/inkscape" width="378.95233" height="95.728317" viewBox="0 0 100.26448 25.328118" id="svg3798" inkscape:version="0.92.2 (5c3e80d, 2017-08-06)" sodipodi:docname="healthyFighterSimpleV3.svg"> <defs id="defs3792"></defs> <metadata id="metadata3795"></metadata> <g inkscape:label="Calque 1" inkscape:groupmode="layer" id="layer1" transform="translate(-33.536979,-85.907805)"> <path style="fill:none;stroke:#000000;stroke-width:0.52388197;stroke-linecap:round;stroke-linejoin:round;stroke-miterlimit:4;stroke-dasharray:none;stroke-opacity:1" d="m 65.502581,108.32312 0.688349,0.002" id="path970" inkscape:connector-curvature="0" inkscape:export-xdpi="51.827873" inkscape:export-ydpi="51.827873"></path> <path style="fill:none;stroke:#000000;stroke-width:0.52388197;stroke-linecap:round;stroke-linejoin:round;stroke-miterlimit:4;stroke-dasharray:none;stroke-opacity:1" d="m 49.454818,108.30809 16.047763,0.0148" id="path968" inkscape:connector-curvature="0" sodipodi:nodetypes="cc" inkscape:export-xdpi="51.827873" inkscape:export-ydpi="51.827873"></path> <g transform="matrix(0.22006269,0,0,0.19142857,312.11127,29.415322)" id="g4990" inkscape:export-xdpi="51.827873" inkscape:export-ydpi="51.827873" style="fill:#d65456;fill-opacity:1;stroke:#000000;stroke-width:2.5524478;stroke-linecap:round;stroke-linejoin:round;stroke-miterlimit:4;stroke-dasharray:none;stroke-opacity:1"> <path sodipodi:nodetypes="ccccccccccccsccscssscccccccsscccccccccccccc" inkscape:connector-curvature="0" id="path860" d="m -970.14299,411.83184 c 0.88307,-0.86287 1.64404,-1.69156 1.99853,-2.44207 0.94493,-2.00059 2.13971,-4.58531 1.16731,-5.55794 -0.97261,-0.97261 -1.41737,1.19524 -2.22321,2.00107 -0.80582,0.80582 -3.83509,1.33388 -6.33609,1.77843 -2.50121,0.44479 -5.55815,1.83405 -9.78267,1.1115 -4.22405,-0.72231 -14.00632,-2.88993 -17.11888,-3.55687 -3.1128,-0.66695 -2.5571,-2.16786 -6.5589,-2.61242 -1.6655,-0.18502 -4.1493,-0.70723 -6.6179,-1.29382 0.9377,-1.90473 2.1539,-4.40547 2.7828,-5.82084 1.1117,-2.50122 2.7236,-3.16816 2.39,-5.72497 -0.3336,-2.5568 -0.3611,-5.69728 0.2782,-6.3363 0.639,-0.63926 2.3898,0.11138 3.1679,0.11138 0.7782,0 2.3903,1.83382 3.3906,2.11203 1.0003,0.27776 4.27966,0.50037 5.83596,0.22216 1.5565,-0.27776 4.94682,-2.00106 4.94682,-4.27964 0,-2.27883 1.3339,-3.33495 0.83373,-4.39109 -0.50038,-1.05589 -1.05588,-3.11254 -2.27881,-3.89069 -1.22294,-0.77813 -4.11304,-1.44531 -5.72514,-1.44531 -1.61186,0 -4.39096,0.77836 -5.66946,0.77836 -1.2785,0 -2.8972,0.69397 -3.2794,1.61189 -0.5557,1.33411 -3.6676,0.16701 -3.1679,-1.77845 0.9449,-1.72284 2.0569,-4.66861 2.7236,-6.22488 0.667,-1.55651 4.3355,-5.61376 6.2251,-6.55894 1.89,-0.94469 5.39166,-2.112 7.72586,-3.44613 2.33466,-1.33388 5.5861,-2.97344 7.28149,-1.27829 1.69516,1.69517 2.72336,2.61242 3.77971,3.05696 1.05614,0.44455 1.61189,1.66724 2.16762,1.66724 0.55576,0 0.83376,-0.88932 0.83376,-1.55627 v -1.72307 c 0,0 1.8338,1.94547 2.33418,1.44531 0.50038,-0.50015 -0.36126,-1.13941 -1.00031,-1.77866 -0.63902,-0.63904 -1.97316,-2.4177 -2.4456,-2.89017 -0.47246,-0.47224 -2.16738,-1.72307 -3.33473,-1.94547 -1.16731,-0.22238 -5.05822,-1.00052 -7.7816,-0.33358 -2.72342,0.66695 -12.20038,2.52889 -13.50648,3.83533 -1.3061,1.30619 -8.1703,7.94817 -9.3932,9.67103 -1.2227,1.72305 -3.5018,3.16815 -5.2802,4.05748 -1.7784,0.88956 -6.9476,4.05749 -11.6718,7.83698 -4.7245,3.7795 -9.2265,9.72686 -10.8942,13.0062 -1.6673,3.27935 -4.0019,5.94714 -4.78,7.39222 -0.7782,1.44529 -1.3764,5.07582 -5.4338,5.96493 -3.6523,0.80072 -10.7805,4.06608 -12.5803,8.83855" style="fill:#d65456;fill-opacity:1;stroke:#000000;stroke-width:2.5524478;stroke-linecap:round;stroke-linejoin:round;stroke-miterlimit:4;stroke-dasharray:none;stroke-opacity:1"></path> </g> <path sodipodi:nodetypes="cssssssssscccsscscssscssssssscssccsssscccscsssccsccsssscsscscsssscssscsssscssssccssssccsssssssssscsccsssscccscsscssssssscscsccccscssssssc" inkscape:connector-curvature="0" id="path4923" d="m 120.26401,108.42912 c 0.03,-0.0577 0.62719,-0.71278 0.66796,-0.83432 0.0407,-0.12157 0.0523,-0.25834 0.20959,-0.45586 0.15721,-0.19754 0.30861,-0.50142 0.27946,-0.8357 -0.0291,-0.33432 -0.10476,-0.90154 -0.25617,-1.36751 -0.1514,-0.46598 -0.40756,-1.34727 -0.43667,-1.81325 -0.0291,-0.46595 -0.23293,-1.00282 -0.35518,-1.18517 -0.12223,-0.18235 -0.20961,-0.37481 -0.23871,-0.5622 -0.0293,-0.1874 -0.007,-0.39506 -0.0757,-0.5369 -0.0698,-0.1418 -0.31442,-1.012961 -0.39009,-1.07881 -0.0757,-0.06592 -0.34355,-0.825576 -0.34355,-1.240911 h -0.0931 l 0.0465,-0.698941 c 0,0 -0.12223,-0.0057 -0.12223,-0.08105 0,-0.07597 0,-0.344383 -0.13389,-0.450767 -0.13396,-0.106374 -0.23872,-0.308954 -0.23872,-0.308954 0,0 -0.63469,-0.156996 -0.68708,-0.156996 -0.0524,0 -0.0873,-0.06586 -0.0873,-0.06586 0,0 -0.45414,-0.07597 -1.01892,-0.167138 -0.56477,-0.09113 -1.17033,-0.202587 -1.40322,-0.197535 -0.23291,0.0057 -1.17034,-0.09624 -1.26932,-0.06587 -0.099,0.03046 0.40175,0.471028 0.47163,1.109186 0.0757,0.638185 0.0757,0.810396 0.0932,0.937001 0.0173,0.126642 0.0525,0.4204 -0.32607,0.486228 -0.37846,0.06592 -0.65794,-0.202575 -0.79185,-0.243113 -0.13389,-0.04051 -0.29695,-0.141805 -0.41339,-0.359601 -0.11646,-0.217786 -0.15142,-0.536865 -0.20381,-0.61286 -0.0523,-0.07597 -0.17464,-0.10126 -0.25617,-0.400112 -0.0815,-0.29883 -0.7511,-0.754667 -0.87339,-0.942059 -0.12226,-0.187416 -0.23289,-0.774937 0.0524,-1.215573 0,0 -0.0466,-0.182341 -0.035,-0.374802 0.0116,-0.192476 0.0291,-0.587516 -0.0174,-0.628057 -0.0466,-0.04049 -0.85007,-0.628036 -0.85007,-0.628036 0,0 -0.23872,0.05067 -0.40759,0 -0.16883,-0.05067 -0.74526,-0.3596 -0.94905,-0.526751 -0.20379,-0.167138 -0.55895,-0.471026 -0.4134,-1.063617 0.14556,-0.592576 0.86172,-1.094014 1.56044,-1.220644 0.69869,-0.126611 0.69285,0.344412 0.68704,0.359615 -0.007,0.0152 0.48326,0.192471 0.69288,0.501415 0,0 0.10487,0.08613 0.0932,0.15701 0,0 0.38431,0.263385 0.51821,0.612849 0,0 0.65214,-0.612849 0.72783,-0.648298 0.0757,-0.03539 0.33769,-0.298826 0.57641,-0.379854 0.24455,-0.08105 0.44252,-0.162077 1.14121,-0.172224 0.69869,-0.01012 1.18197,-0.172205 1.39742,-0.17727 0.21544,-0.0057 0.92576,-0.09623 1.0189,-0.19247 0.0932,-0.09623 0.48912,-0.298817 1.11212,-0.420371 0.62298,-0.116496 1.66523,-0.268451 1.66523,-0.268451 0,0 0.14554,-0.106343 0.34934,-0.167131 0.20378,-0.0608 0.75112,-0.08105 0.83263,-0.116495 0.0757,-0.0354 0.30858,-0.167148 0.83843,-0.192469 0,0 0.099,-0.04049 0.15721,-0.101292 0.0581,-0.06079 0.16302,-0.101282 0.20378,-0.106355 0.0408,-0.0057 0.10476,0.04557 0.10476,0.0709 0,0.02522 -0.0467,0.106375 -0.0523,0.106375 -0.007,0 -0.13392,0.101303 -0.13392,0.101303 0,0 0.18052,-0.1469 0.22708,-0.207672 0.0465,-0.0608 0.13392,-0.0608 0.16304,-0.02029 0.0291,0.04067 0.0291,0.131689 -0.007,0.157005 0,0 0.0523,0.01012 0.0641,0.06588 0.01,0.05569 -0.0757,0.136731 -0.22128,0.217781 0,0 0.0175,0.07089 -0.007,0.106365 -0.0233,0.03541 -0.13976,0.157013 -0.12809,0.19247 0.01,0.0354 0.13974,0.0608 0.13392,0.197521 -0.007,0.136764 -0.0641,0.131697 -0.0817,0.131697 -0.0173,0 -0.0873,-0.09623 -0.0873,-0.09623 0,0 -0.0523,0.121563 -0.32609,0.121563 -0.27363,0 -0.82095,0.0152 -0.85007,0.0152 -0.0291,0 -0.73945,0.157016 -0.79768,0.18234 -0.0581,0.02521 -0.11067,-0.03039 -0.11067,-0.03039 0,0 -0.94325,0.521702 -1.67689,0.764809 -0.73364,0.243122 -0.75693,0.268418 -0.87919,0.27857 -0.12228,0.01012 -0.48328,-0.0057 -0.83844,0.07598 -0.35516,0.08105 -0.55314,0.207673 -0.70453,0.248192 -0.15138,0.04067 -0.78604,0.253246 -0.86172,0.27857 0,0 0.5706,0.253233 0.93159,0.445702 0.361,0.192485 1.24019,0.222859 1.56046,0.121559 0.32024,-0.101292 0.34934,0.03039 0.39008,0.03039 0.0408,0 0.29694,-0.07089 0.36681,-0.03039 0.0699,0.0405 0.0991,0.07597 0.0991,0.07597 0,0 0.13392,-0.08614 0.18632,-0.116482 0.0466,-0.03047 0.44254,-0.308963 0.50075,-0.36975 0.0581,-0.06079 0.25619,-0.182324 0.27368,-0.19246 0.0173,-0.01022 0.0233,-0.09124 0.0814,-0.121553 0.0581,-0.03047 0.10476,-0.07598 0.15137,-0.06588 0.0466,0.01012 0.0757,-0.167123 0.13975,-0.162055 0.0698,0.0057 0.43085,-0.09123 0.52984,-0.05569 0,0 0.70453,-0.592593 1.42651,-0.962335 0.72198,-0.369724 1.05387,-0.582455 1.12375,-0.64828 0.07,-0.06587 0.16301,-0.222866 0.42502,-0.344435 0.26201,-0.121552 0.47163,-0.167131 0.55896,-0.22285 0.0873,-0.05576 0.3086,-0.146868 0.38429,-0.172198 0.0757,-0.02522 0.13393,-0.177273 0.23874,-0.253256 0.10476,-0.07598 0.28528,-0.172191 0.60553,-0.349473 0.32023,-0.177265 2.87053,-1.012963 3.1325,-1.088938 0.26205,-0.07597 0.36682,-0.151952 0.43668,-0.17728 0.0698,-0.02522 0.33187,-0.187394 0.3901,-0.207673 0.0583,-0.02029 0.35519,-0.156996 0.35519,-0.156996 0,0 0.25617,-0.24818 0.42507,-0.314029 0.16884,-0.06588 0.33769,-0.116482 0.39007,-0.192459 0.0465,-0.07598 0.33189,-0.420372 0.39009,-0.445702 0.0581,-0.03047 0.13975,0.02029 0.16307,0 0.0235,-0.02029 0.19793,-0.131671 0.23286,-0.131671 0.0352,0 0.0816,-0.02038 0.10477,0 0.0233,0.02029 0.16307,-0.01022 0.21548,0.02522 0.0522,0.0354 0.0522,0.0709 0.0522,0.0709 0,0 0.10487,0.03539 0.13387,0.187392 v 0 c 0,0 0.163,0.01504 0.163,0.227911 0,0.212748 -0.163,0.369742 -0.163,0.369742 0,0 -0.17471,0.157012 -0.20963,0.258315 -0.0352,0.101282 -0.64048,0.329226 -0.76277,0.395057 -0.12222,0.06588 0.0291,0.29376 -0.16301,0.405191 -0.19216,0.116485 -0.55898,0.101303 -0.62885,0.05067 -0.0698,-0.05067 -0.20379,0.101281 -0.34933,0.151919 -0.14557,0.05067 -0.35516,-0.03047 -0.43083,0 -0.0757,0.03046 -1.99134,1.139632 -2.19511,1.327017 -0.20379,0.187417 -0.34936,0.308962 -0.62885,0.460906 -0.27946,0.151943 -0.9898,0.349462 -1.19941,0.435564 -0.20962,0.08612 -0.49493,0.506515 -0.64633,0.638187 -0.15135,0.131688 -0.52401,0.374809 -0.52401,0.374809 0,0 -0.40757,0.410244 -0.69869,0.876216 -0.29115,0.465972 -0.75692,0.967393 -0.75692,0.967393 0,0 0.32606,0.552076 0.35516,0.774934 0.0291,0.222844 -0.15139,0.334277 -0.15139,0.334277 l -1.07715,0.815445 0.55314,1.570109 c 0,0 -0.20376,0.369726 -0.78604,0.648323 0,0 0.17467,1.266202 0,2.491921 -0.17468,1.2257 0.10476,1.47894 0.21543,1.68154 0.10477,0.20259 0.361,0.77998 0.39011,1.2561 0.0291,0.47608 -0.0932,0.93699 -0.10477,1.05348 -0.01,0.11645 -0.0291,1.36753 0.0933,1.93987 0.12221,0.57232 0.16302,0.70402 0.29112,0.85595 0.12808,0.15196 0.22126,0.28364 0.22126,0.38495 0,0.10118 -0.0465,0.27856 -0.4891,0.50648 -0.44253,0.22789 -1.33626,0.72245 -1.33626,0.72245" style="fill:#d75455;fill-opacity:1;stroke:#000000;stroke-width:0.52388197;stroke-linecap:round;stroke-linejoin:round;stroke-miterlimit:4;stroke-dasharray:none;stroke-opacity:1" inkscape:export-xdpi="51.827873" inkscape:export-ydpi="51.827873"></path> <path style="fill:none;stroke:#000000;stroke-width:0.52388197;stroke-linecap:round;stroke-linejoin:round;stroke-miterlimit:4;stroke-dasharray:none;stroke-opacity:1" d="m 71.276649,108.32413 -0.501609,-1.06705 -0.593666,2.1786 -0.561964,-3.51028 -0.872871,4.9436 -0.763296,-6.24554 -0.766088,3.70067 H 66.19093" id="path4845-0" inkscape:connector-curvature="0" sodipodi:nodetypes="cccccccc" inkscape:export-xdpi="51.827873" inkscape:export-ydpi="51.827873"></path> <path style="fill:none;stroke:#000000;stroke-width:0.52388197;stroke-linecap:round;stroke-linejoin:round;stroke-miterlimit:4;stroke-dasharray:none;stroke-opacity:1" d="m 71.276649,108.32413 h 5.574587" id="path4943" inkscape:connector-curvature="0" sodipodi:nodetypes="cc" inkscape:export-xdpi="51.827873" inkscape:export-ydpi="51.827873"></path> <path style="fill:none;stroke:#000000;stroke-width:0.52425337;stroke-linecap:round;stroke-linejoin:round;stroke-miterlimit:4;stroke-dasharray:none;stroke-opacity:1" d="m 98.196754,108.3944 5.663916,0.0347 h 1.02621 l 0.76608,-3.70067 0.92801,6.24552 0.70817,-4.94358 0.56197,3.51025 0.59367,-2.17863 0.50161,1.06711 h 11.31762" id="path4845-0-5" inkscape:connector-curvature="0" sodipodi:nodetypes="cccccccccc" inkscape:export-xdpi="51.827873" inkscape:export-ydpi="51.827873"></path> <path style="fill:none;stroke:#000000;stroke-width:0.52388197;stroke-linecap:round;stroke-linejoin:round;stroke-miterlimit:4;stroke-dasharray:none;stroke-opacity:1" d="m 121.27868,108.43872 h 12.2571" id="path942" inkscape:connector-curvature="0" inkscape:export-xdpi="51.827873" inkscape:export-ydpi="51.827873"></path> <path style="fill:none;stroke:#000000;stroke-width:0.52388197;stroke-linecap:round;stroke-linejoin:round;stroke-miterlimit:4;stroke-dasharray:none;stroke-opacity:1" d="m 33.802651,108.26863 14.680659,0.0382 0.971508,10e-4" id="path4873" inkscape:connector-curvature="0" sodipodi:nodetypes="ccc"></path> <path style="fill:none;stroke:#000000;stroke-width:0.52425337;stroke-linecap:butt;stroke-linejoin:miter;stroke-miterlimit:4;stroke-dasharray:none;stroke-opacity:1" d="m 76.851262,108.32415 21.345492,0.0702" id="path2914" inkscape:connector-curvature="0"></path> <path style="fill:none;stroke:#000000;stroke-width:0.52425337;stroke-linecap:butt;stroke-linejoin:miter;stroke-miterlimit:4;stroke-dasharray:none;stroke-opacity:1" d="m 120.264,108.4291 1.01325,0.009" id="path2916" inkscape:connector-curvature="0"></path> <path inkscape:connector-curvature="0" id="path4894" d="m 86.341008,105.41266 c 0.18349,0.15961 0.97241,0.1756 1.13757,0.0319 -0.16124,0.34359 -0.29583,0.61319 -0.41442,0.87893 -0.0827,-0.0201 -0.14982,-0.0368 -0.19718,-0.049 -0.41585,-0.10644 -0.70944,-0.56391 -0.52597,-0.86187 v 0" style="fill:#ffffff;stroke:#000000;stroke-width:0.52388203;stroke-linecap:round;stroke-linejoin:round;stroke-miterlimit:4;stroke-dasharray:none;stroke-opacity:1"></path> <path id="path4725" d="m 42.007808,100.6669 c -0.175964,0.33451 -0.250065,0.78585 -0.129532,1.37111 0,0 -0.463272,0.67715 -0.231683,2.09868 0,0 -0.172066,-0.19331 -0.07939,0.86028 0.08329,1.04501 -0.287211,2.34085 -0.287211,2.34085 0,0 -0.08348,0.0334 -0.08348,0.1172 0,0 -0.472365,0.0668 -0.750292,0.0585 -0.27802,-0.008 -0.537276,0.0752 -0.704048,0.16707 -0.166679,0.0922 -0.324166,0.10889 -0.426032,0.12551 -0.10196,0.0252 -0.10196,0.14214 -0.02797,0.18388 0,0 -0.074,0.28427 0.444797,0.15895 0,0 0.305687,0.0752 0.528085,-0.008 0.2223,-0.0838 0.611471,-0.11711 0.657714,-0.11711 0,0 -0.139012,0.0838 -0.03705,0.15894 0.101767,0.0836 0.435316,-0.0334 0.629856,-0.025 0.185252,0 0.472463,-0.13392 0.509512,-0.2175 0,0 0.222206,-0.10851 0.185252,-0.3177 0,0 0.04624,-0.14195 0,-0.22581 0,0 0.203825,-0.66884 0.463272,-1.14521 0.26854,-0.48515 0.672387,-0.83525 0.542663,-1.91397 0,0 0.203727,-0.48477 0.194439,-1.1536 -0.0093,-0.66044 0.296499,-1.23738 0.296499,-1.23738 0,0 0.03705,-0.0752 0.08329,-0.19238 0.52818,0.28427 1.343382,0.58525 2.35312,0.49346 0,0 0.463273,0.42631 0.9635,0.5097 0,0 -0.01849,0.1173 0.148199,0.2175 0.166776,0.092 0.537276,0.2091 0.648332,0.33442 0.10196,0.11691 0.222399,1.51333 1.852897,1.95627 0,0 -0.01849,0.1172 0.250065,0.18406 0.259447,0.0668 1.120983,0.33442 1.232231,0.40119 0,0 -0.02797,0.0752 0.09258,0.10049 0,0 -0.06481,0.092 0.0092,0.16716 0,0 -0.298671,0.6601 -0.456067,0.79364 -0.166772,0.13402 -0.407744,0.5353 -0.56504,0.73599 -0.157488,0.20041 -0.194728,0.26727 -0.0742,0.45125 0.129723,0.18406 0.806011,0.18406 1.120986,0.008 0.305593,-0.18407 0.602089,-0.80276 0.759577,-0.97814 0.148199,-0.17566 0.687845,-0.82717 0.613649,-1.10313 -0.0741,-0.27586 -0.315069,-0.627 -0.54656,-0.627 0,0 -0.0093,-0.1172 -0.157488,-0.15914 0,0 -0.18535,-0.21712 -0.370598,-0.42621 -0.175967,-0.20079 -0.324264,-0.39288 -0.565043,-0.47675 0,0 0,-0.12523 -0.10196,-0.16707 0,0 0.03705,-0.30939 -0.06481,-0.4179 0,0 0.361215,-0.28437 1.130178,-0.0588 0.768959,0.2259 1.547015,0.93639 2.325259,1.07031 0.768865,0.13373 1.12089,0.0334 1.12089,0.0334 0,0 0.435509,-0.0334 0.833775,0.0752 0.389075,0.10039 1.065266,0.26765 1.741648,0.30108 0,0 0.277925,0.16726 0.713242,0.2091 0,0 1.037598,0.25924 1.241327,0.5182 0.213206,0.25915 0.314975,0.35142 0.314975,0.35142 0,0 -0.382402,0.45108 -0.363923,0.69351 0.01848,0.23412 -0.166774,0.5268 -0.361216,0.65212 -0.185347,0.12552 -0.315071,0.37607 0.09248,0.51009 0.407744,0.13354 1.176609,0.0918 1.491584,-0.0671 0.315071,-0.15035 0.268542,-0.70227 0.444603,-1.00326 0.166774,-0.29258 0.64204,-1.0948 0.178864,-1.3122 0,0 -0.24097,-0.49346 -0.870824,-0.4096 0,0 -0.03705,-0.20909 -0.324262,-0.29267 0,0 -0.24097,-0.21751 -0.537276,-0.27597 -0.305688,-0.067 -0.870825,-0.61869 -1.352573,-0.82778 -0.481749,-0.20078 -1.32481,-0.45134 -2.102865,-0.45965 0,0 -0.259447,-0.14231 -0.481749,-0.0924 0,0 -0.194538,-0.0668 -0.287211,-0.0835 0,0 -0.685573,-0.49346 -1.454343,-1.12877 -0.657808,-0.54323 -1.380336,-1.01157 -1.963856,-1.22907 v 0 c 0,0 0.0093,-0.50149 0.111057,-1.59683 0.09267,-1.095057 -0.546561,-1.772207 -0.546561,-1.772207 -0.231492,-0.468433 -1.278377,-0.292677 -1.278377,-0.292677 -1.084031,-0.367851 -2.343835,0.217123 -2.343835,0.217123 -1.32462,-0.392879 -2.102868,0.317798 -2.102868,0.317798 0,0 -0.944828,-0.200595 -1.936185,0.735893 -0.129724,-0.0084 -0.277923,0 -0.444793,0.03343 0,0 -0.750292,-0.852812 -1.667359,-0.744015 -0.352025,0.03343 -0.722528,0.250555 -0.963496,0.576664 -0.472561,0.209095 -0.666999,0.669028 -0.666999,0.669028 -0.101772,-0.108892 -0.111057,-0.284365 -0.111057,-0.284365 0,0 -0.194728,0.560042 0.05553,0.919678 0.259255,0.35945 0.824487,0.44294 0.824487,0.44294 v 0 c 0.08329,0.11701 0.194536,0.23412 0.32426,0.35113 0,0 0.03705,0.0417 0.138914,0.0417 0.06482,0 0.120341,0.059 0.157296,0.12599 z m 9.504779,-0.16726 c 0,0 -0.203731,-0.30099 -0.592804,-0.12523 0,0 -0.704052,-0.12561 -1.222755,-0.961426 l -0.09267,-0.167352 c 0.981975,-0.01672 1.500775,-0.417906 1.500775,-0.417906 0,0 0.03696,-0.03343 0.231491,0.593568 0.194443,0.618686 0.175967,1.078346 0.175967,1.078346 z" inkscape:connector-curvature="0" style="clip-rule:evenodd;fill:#d75455;fill-opacity:1;fill-rule:evenodd;stroke:#000000;stroke-width:0.52399999;stroke-miterlimit:4;stroke-dasharray:none;stroke-opacity:1" sodipodi:nodetypes="cccccccccccccccccccccccccccccccccccccccccccccccccccccccccccccccccccccccccccccccccccscccccccccc"></path> </g> </svg> 