<?xml version="1.0" encoding="UTF-8" standalone="no"?> <!-- Created with Inkscape (http://www.inkscape.org/) --> <svg xmlns:dc="http://purl.org/dc/elements/1.1/" xmlns:cc="http://creativecommons.org/ns#" xmlns:rdf="http://www.w3.org/1999/02/22-rdf-syntax-ns#" xmlns:svg="http://www.w3.org/2000/svg" xmlns="http://www.w3.org/2000/svg" xmlns:sodipodi="http://sodipodi.sourceforge.net/DTD/sodipodi-0.dtd" xmlns:inkscape="http://www.inkscape.org/namespaces/inkscape" width="352.4613" height="90.77639" viewBox="0 0 93.255393 24.017921" id="svg3798" inkscape:version="0.92.2 (5c3e80d, 2017-08-06)" sodipodi:docname="healthyFighterSimple.svg"> <defs id="defs3792"></defs> <metadata id="metadata3795"></metadata> <g inkscape:label="Calque 1" inkscape:groupmode="layer" id="layer1" transform="translate(-28.853068,-85.440677)"> <path style="fill:none;stroke:#000000;stroke-width:0.48337787;stroke-linecap:round;stroke-linejoin:round;stroke-miterlimit:4;stroke-dasharray:none;stroke-opacity:1" d="m 60.820381,106.70171 0.617623,0.002" id="path970" inkscape:connector-curvature="0" inkscape:export-xdpi="51.827873" inkscape:export-ydpi="51.827873"></path> <path style="fill:none;stroke:#000000;stroke-width:0.48337787;stroke-linecap:round;stroke-linejoin:round;stroke-miterlimit:4;stroke-dasharray:none;stroke-opacity:1" d="m 46.421489,106.68745 14.398892,0.014" id="path968" inkscape:connector-curvature="0" sodipodi:nodetypes="cc" inkscape:export-xdpi="51.827873" inkscape:export-ydpi="51.827873"></path> <g id="g1009" transform="matrix(0.19745175,0,0,0.1816347,281.04457,29.421858)" inkscape:export-xdpi="51.827873" inkscape:export-ydpi="51.827873" style="fill:#d65456;fill-opacity:0.88983053;fill-rule:nonzero;stroke:#000000;stroke-width:2.5524478;stroke-linecap:round;stroke-linejoin:round;stroke-miterlimit:4;stroke-dasharray:none;stroke-opacity:1"> <g id="g996" style="fill:#d65456;fill-opacity:0.88983053;fill-rule:nonzero;stroke:#000000;stroke-width:2.5524478;stroke-linecap:round;stroke-linejoin:round;stroke-miterlimit:4;stroke-dasharray:none;stroke-opacity:1"> <g id="g979" style="fill:#d65456;fill-opacity:0.88983053;fill-rule:nonzero;stroke:#000000;stroke-width:2.5524478;stroke-linecap:round;stroke-linejoin:round;stroke-miterlimit:4;stroke-dasharray:none;stroke-opacity:1"></g> <g id="g985" style="fill:#d65456;fill-opacity:0.88983053;fill-rule:nonzero;stroke:#000000;stroke-width:2.5524478;stroke-linecap:round;stroke-linejoin:round;stroke-miterlimit:4;stroke-dasharray:none;stroke-opacity:1"> <path id="path830" style="fill:#d65456;fill-opacity:0.88983053;fill-rule:evenodd;stroke:#000000;stroke-width:2.5524478;stroke-linecap:round;stroke-linejoin:round;stroke-miterlimit:4;stroke-dasharray:none;stroke-opacity:1" d="m -1234.9853,424.41487 c 0.3407,0.22295 0.701,0.65302 2.2488,0.65302 0.6977,0 1.175,-0.2497 1.5262,-0.63791 m 4.4792,0.008 c 0.1274,5.7e-4 0.2453,-0.002 0.3385,-0.002 0,0.5224 1.2686,0.26131 2.4253,0 0.037,-0.008 0.075,-0.0168 0.1124,-0.025 m 0,-2.2e-4 c 1.1194,-0.24577 2.2397,-0.38534 3.3954,-0.38534 -0.099,0.14764 -0.152,0.27994 -0.1689,0.39588 m -10.5819,0.008 c 0.7005,-0.77424 0.8997,-2.09944 1.3471,-3.09361 0.6717,-1.49265 6.5823,-2.22192 8.2843,-2.83334 0.8343,-0.29961 2.0229,0.0773 3.7748,0.56131 -0.087,0.50564 -0.2683,1.26821 -0.6031,1.60302 -0.5225,0.52261 -2.4628,0.85823 -3.4329,1.12139 -0.9703,0.26318 -2.0151,0.37126 -2.7989,0.55802 -0.7834,0.18655 -1.4737,0.57809 -1.8284,0.93277 0,0 -0.7836,0.73947 -1.088,1.38279 -0.2712,0.5728 0.2885,-0.22638 0.8243,-0.224 m 8.2481,-0.056 c 0.774,-0.33907 1.9009,-0.13886 2.8369,-0.65534 0.8031,-0.44308 1.0911,-2.33577 1.2329,-3.82366 2.6785,0.70751 4.7617,0.8359 7.3863,0.8359 1.8199,0 3.7127,-0.39671 8.8065,-0.18654 0.25,0.0102 0.4914,0.0173 0.7277,0.0228 -0.2221,1.65602 0.056,2.76953 -0.2305,3.84832 m 65.0518,-0.004 c 2.4846,-1.24771 1.8239,-5.40468 1.8239,-6.97614 0,-1.79102 0.448,-3.76838 0.448,-6.3433 v -1e-4 0 c 0,-2.57471 -2.4629,-3.0971 -3.806,-2.42543 0,0 -0.8208,-0.97025 -1.7537,-1.34336 -0.933,-0.37311 -3.9556,0.48513 -4.9259,0.67169 -0.9702,0.18655 -0.5596,0.67167 -0.5596,0.67167 0,0 -4.8704,1.21448 -8.4153,0.46805 -3.4715,-0.90578 -4.7824,-1.59445 -10.7655,-2.32067 -5.7844,0.38805 -7.3695,0.11042 -12.1084,-0.8971 -4.7393,-1.00773 -5.4479,-2.01484 -8.4333,-3.7688 -2.985,-1.75394 -6.8286,-1.34336 -8.5451,-0.97024 -1.7167,0.37331 -2.6864,1.60465 -7.6868,0.59694 -4.9999,-1.00753 -11.9035,-1.08207 -13.9933,-0.78351 -2.0896,0.29838 -2.6493,-0.93297 -7.8734,-0.44765 -5.2242,0.48513 -7.8362,3.65678 -8.2465,4.55228 -0.4106,0.89551 -0.1868,2.83581 -1.3433,2.53724 -1.157,-0.29857 -3.3211,-1.9403 -4.2915,-2.91055 -0.9702,-0.97025 -3.6195,-1.00752 -4.9254,-1.4179 -1.3061,-0.41039 -2.6867,0.97025 -3.9181,1.23154 -1.2313,0.2611 -1.7164,1.679 -3.4329,2.4625 -1.7164,0.78369 -0.5224,2.16432 -1.6419,3.28387 -1.1194,1.11954 -0.8956,1.41811 -1.1568,3.69404 -0.2614,2.27635 3.2463,2.12705 3.2463,2.12705 0,0 0.7463,0.55967 1.1942,1.86576 0.4478,1.3061 1.8284,1.49245 2.7239,2.05232 0.8958,0.55966 1.1194,1.64194 1.4925,2.98509 0.3733,1.34337 1.6419,-0.0372 2.1645,-0.0372 0.5226,0 0.7089,0.85824 1.0076,0.85824 0,0.41059 0.3731,0.44787 1.0074,0.44787 0.1645,0 0.2813,0.0527 0.4005,0.13067 m 95.5814,0.0115 c -0.4815,-0.24574 -0.7351,-0.59245 -0.7351,-1.04963 -1.1196,0.26128 -3.8434,-0.22362 -3.8434,-1.86558 0,-1.64192 0.9703,-1.49264 1.4927,-2.01504 0.5224,-0.52239 0.7462,-0.52239 0.5224,-1.60464 -0.224,-1.08207 -0.709,-1.11935 -0.709,-1.79102 0,-0.6717 0.2611,-1.04748 -1.045,-0.82243 -1.3061,0.22529 -5.2616,1.27008 -10.5976,2.1658 0,0 -5.2242,2.08957 -8.3212,2.08957 -0.4477,2.9853 -3.0047,4.37767 -5.6539,4.37767 -2.6492,0 -7.3135,-1.00754 -10.5599,-1.23156 -3.2466,-0.22402 -6.0639,0.46649 -8.2468,-1.71646 -2.183,-2.18318 -2.612,-1.97778 -2.612,-1.97778 0,0 -0.5104,0.74665 -2.7175,1.21975 -0.3508,1.30151 0.2864,2.87865 -0.1915,4.2121 m 53.2177,0.01 c 0.9728,0.49675 2.8757,0.58092 5.4966,0.3308 0.4802,-0.0438 0.8888,-0.16321 1.2359,-0.33737 m -87.9569,0.002 c -0.099,0.67525 1.4286,1.11286 2.1929,0.48077 0.1016,-0.084 -0.1684,-0.46714 -0.047,-0.5201" inkscape:connector-curvature="0" sodipodi:nodetypes="cscccccccccccccccccccccsccccssccccccccccccccccccccccccccscscccsccscccsccccccccccc"></path> </g> </g> </g> <g transform="matrix(0.19745175,0,0,0.1816347,281.71175,31.96636)" id="g4990" inkscape:export-xdpi="51.827873" inkscape:export-ydpi="51.827873" style="fill:#d65456;fill-opacity:0.88983053;stroke:#000000;stroke-width:2.5524478;stroke-linecap:round;stroke-linejoin:round;stroke-miterlimit:4;stroke-dasharray:none;stroke-opacity:1"> <path sodipodi:nodetypes="ccccccccccccsccscssscccccccsscccccccccccccc" inkscape:connector-curvature="0" id="path860" d="m -970.14299,411.83184 c 0.88307,-0.86287 1.64404,-1.69156 1.99853,-2.44207 0.94493,-2.00059 2.13971,-4.58531 1.16731,-5.55794 -0.97261,-0.97261 -1.41737,1.19524 -2.22321,2.00107 -0.80582,0.80582 -3.83509,1.33388 -6.33609,1.77843 -2.50121,0.44479 -5.55815,1.83405 -9.78267,1.1115 -4.22405,-0.72231 -14.00632,-2.88993 -17.11888,-3.55687 -3.1128,-0.66695 -2.5571,-2.16786 -6.5589,-2.61242 -1.6655,-0.18502 -4.1493,-0.70723 -6.6179,-1.29382 0.9377,-1.90473 2.1539,-4.40547 2.7828,-5.82084 1.1117,-2.50122 2.7236,-3.16816 2.39,-5.72497 -0.3336,-2.5568 -0.3611,-5.69728 0.2782,-6.3363 0.639,-0.63926 2.3898,0.11138 3.1679,0.11138 0.7782,0 2.3903,1.83382 3.3906,2.11203 1.0003,0.27776 4.27966,0.50037 5.83596,0.22216 1.5565,-0.27776 4.94682,-2.00106 4.94682,-4.27964 0,-2.27883 1.3339,-3.33495 0.83373,-4.39109 -0.50038,-1.05589 -1.05588,-3.11254 -2.27881,-3.89069 -1.22294,-0.77813 -4.11304,-1.44531 -5.72514,-1.44531 -1.61186,0 -4.39096,0.77836 -5.66946,0.77836 -1.2785,0 -2.8972,0.69397 -3.2794,1.61189 -0.5557,1.33411 -3.6676,0.16701 -3.1679,-1.77845 0.9449,-1.72284 2.0569,-4.66861 2.7236,-6.22488 0.667,-1.55651 4.3355,-5.61376 6.2251,-6.55894 1.89,-0.94469 5.39166,-2.112 7.72586,-3.44613 2.33466,-1.33388 5.5861,-2.97344 7.28149,-1.27829 1.69516,1.69517 2.72336,2.61242 3.77971,3.05696 1.05614,0.44455 1.61189,1.66724 2.16762,1.66724 0.55576,0 0.83376,-0.88932 0.83376,-1.55627 v -1.72307 c 0,0 1.8338,1.94547 2.33418,1.44531 0.50038,-0.50015 -0.36126,-1.13941 -1.00031,-1.77866 -0.63902,-0.63904 -1.97316,-2.4177 -2.4456,-2.89017 -0.47246,-0.47224 -2.16738,-1.72307 -3.33473,-1.94547 -1.16731,-0.22238 -5.05822,-1.00052 -7.7816,-0.33358 -2.72342,0.66695 -12.20038,2.52889 -13.50648,3.83533 -1.3061,1.30619 -8.1703,7.94817 -9.3932,9.67103 -1.2227,1.72305 -3.5018,3.16815 -5.2802,4.05748 -1.7784,0.88956 -6.9476,4.05749 -11.6718,7.83698 -4.7245,3.7795 -9.2265,9.72686 -10.8942,13.0062 -1.6673,3.27935 -4.0019,5.94714 -4.78,7.39222 -0.7782,1.44529 -1.3764,5.07582 -5.4338,5.96493 -3.6523,0.80072 -10.7805,4.06608 -12.5803,8.83855" style="fill:#d65456;fill-opacity:0.88983053;stroke:#000000;stroke-width:2.5524478;stroke-linecap:round;stroke-linejoin:round;stroke-miterlimit:4;stroke-dasharray:none;stroke-opacity:1"></path> </g> <path sodipodi:nodetypes="cssssssssscccsscscssscssssssscssccsssscccscsssccsccsssscsscscsssscssscsssscssssccssssccsssssssssscsccsssscccscsscssssssscscsccccscssssssc" inkscape:connector-curvature="0" id="path4923" d="m 109.9552,106.80229 c 0.0269,-0.0548 0.56274,-0.67631 0.59932,-0.79164 0.0365,-0.11535 0.0469,-0.24512 0.18806,-0.43253 0.14106,-0.18744 0.2769,-0.47577 0.25075,-0.79295 -0.0261,-0.31721 -0.094,-0.85541 -0.22985,-1.29754 -0.13585,-0.44214 -0.36569,-1.27834 -0.39181,-1.72048 -0.0261,-0.44211 -0.20899,-0.95152 -0.31868,-1.12454 -0.10967,-0.17302 -0.18808,-0.35563 -0.21419,-0.53343 -0.0263,-0.177817 -0.006,-0.374853 -0.0679,-0.509437 -0.0626,-0.134546 -0.28211,-0.961136 -0.35001,-1.023616 -0.0679,-0.06255 -0.30825,-0.783338 -0.30825,-1.177424 h -0.0835 l 0.0417,-0.663182 c 0,0 -0.10967,-0.0054 -0.10967,-0.0769 0,-0.07208 0,-0.326764 -0.12014,-0.427705 -0.12019,-0.100932 -0.21419,-0.293147 -0.21419,-0.293147 0,0 -0.56948,-0.148964 -0.61648,-0.148964 -0.047,0 -0.0783,-0.06249 -0.0783,-0.06249 0,0 -0.40748,-0.07208 -0.91423,-0.158586 -0.50674,-0.08647 -1.05008,-0.192223 -1.25904,-0.187429 -0.20898,0.0054 -1.05009,-0.09132 -1.1389,-0.0625 -0.0888,0.0289 0.36047,0.446929 0.42317,1.052438 0.0679,0.605534 0.0679,0.768934 0.0836,0.889062 0.0155,0.120163 0.0471,0.398891 -0.29257,0.461351 -0.33957,0.06255 -0.59034,-0.19221 -0.71049,-0.230674 -0.12013,-0.03844 -0.26644,-0.13455 -0.37091,-0.341204 -0.1045,-0.206643 -0.13586,-0.509397 -0.18287,-0.581504 -0.0469,-0.07208 -0.1567,-0.09608 -0.22985,-0.379642 -0.0731,-0.283541 -0.67393,-0.716057 -0.78365,-0.893861 -0.1097,-0.177828 -0.20896,-0.73529 0.047,-1.153382 0,0 -0.0418,-0.173012 -0.0314,-0.355626 0.0104,-0.182629 0.0261,-0.557458 -0.0156,-0.595925 -0.0418,-0.03842 -0.76273,-0.595904 -0.76273,-0.595904 0,0 -0.21419,0.04808 -0.36571,0 -0.15148,-0.04808 -0.66869,-0.341202 -0.85154,-0.499802 -0.18285,-0.158586 -0.50152,-0.446927 -0.37092,-1.0092 0.1306,-0.562258 0.77318,-1.038042 1.40011,-1.158193 0.6269,-0.120133 0.62166,0.326791 0.61645,0.341216 -0.006,0.01442 0.4336,0.182624 0.62168,0.475762 0,0 0.0941,0.08172 0.0836,0.148977 0,0 0.34482,0.24991 0.46497,0.581494 0,0 0.58513,-0.581494 0.65304,-0.615129 0.0679,-0.03358 0.303,-0.283538 0.51719,-0.36042 0.21942,-0.0769 0.39705,-0.153785 1.02395,-0.163413 0.6269,-0.0096 1.06053,-0.163395 1.25384,-0.168201 0.1933,-0.0054 0.83064,-0.09131 0.91421,-0.182622 0.0836,-0.09131 0.43886,-0.283529 0.99785,-0.398864 0.55897,-0.110536 1.49413,-0.254717 1.49413,-0.254717 0,0 0.13059,-0.100902 0.31345,-0.15858 0.18284,-0.05769 0.67394,-0.0769 0.74708,-0.110535 0.0679,-0.03359 0.27687,-0.158596 0.75228,-0.182622 0,0 0.0888,-0.03842 0.14106,-0.09611 0.0521,-0.05768 0.14627,-0.0961 0.18284,-0.100913 0.0366,-0.0054 0.094,0.04324 0.094,0.06727 0,0.02393 -0.0419,0.100933 -0.0469,0.100933 -0.006,0 -0.12016,0.09612 -0.12016,0.09612 0,0 0.16197,-0.139384 0.20375,-0.197047 0.0417,-0.05769 0.12016,-0.05769 0.14628,-0.01925 0.0261,0.03859 0.0261,0.124952 -0.006,0.148972 0,0 0.0469,0.0096 0.0575,0.06251 0.009,0.05284 -0.0679,0.129735 -0.19855,0.206639 0,0 0.0157,0.06726 -0.006,0.100923 -0.0209,0.0336 -0.1254,0.14898 -0.11493,0.182623 0.009,0.03359 0.12538,0.05769 0.12016,0.187415 -0.006,0.129767 -0.0575,0.124959 -0.0733,0.124959 -0.0155,0 -0.0783,-0.09131 -0.0783,-0.09131 0,0 -0.0469,0.115343 -0.29258,0.115343 -0.24552,0 -0.7366,0.01442 -0.76273,0.01442 -0.0261,0 -0.66347,0.148983 -0.71572,0.173011 -0.0521,0.02392 -0.0993,-0.02884 -0.0993,-0.02884 0,0 -0.84633,0.495011 -1.50459,0.72568 -0.65826,0.230683 -0.67916,0.254685 -0.78886,0.264318 -0.10971,0.0096 -0.43362,-0.0054 -0.75229,0.07209 -0.31867,0.0769 -0.49631,0.197048 -0.63214,0.235494 -0.13583,0.03859 -0.70528,0.240289 -0.77318,0.264317 0,0 0.51197,0.240277 0.83587,0.422899 0.32391,0.182637 1.11276,0.211457 1.40013,0.11534 0.28733,-0.09611 0.31344,0.02884 0.35,0.02884 0.0366,0 0.26643,-0.06726 0.32912,-0.02884 0.0627,0.03843 0.0889,0.07208 0.0889,0.07208 0,0 0.12016,-0.08173 0.16717,-0.110523 0.0418,-0.02891 0.39707,-0.293156 0.4493,-0.350833 0.0521,-0.05768 0.22987,-0.172996 0.24556,-0.182613 0.0155,-0.0097 0.0209,-0.08657 0.073,-0.115334 0.0521,-0.02891 0.094,-0.07209 0.13582,-0.06251 0.0418,0.0096 0.0679,-0.158572 0.12539,-0.153764 0.0626,0.0054 0.38658,-0.08656 0.4754,-0.05284 0,0 0.63214,-0.562275 1.27994,-0.9131 0.6478,-0.350809 0.94559,-0.552656 1.00829,-0.615113 0.0628,-0.0625 0.14626,-0.211464 0.38135,-0.326813 0.23509,-0.115333 0.42317,-0.15858 0.50153,-0.211449 0.0783,-0.05291 0.27689,-0.139354 0.3448,-0.163388 0.0679,-0.02393 0.12017,-0.168203 0.21421,-0.240299 0.094,-0.07209 0.25597,-0.163381 0.54331,-0.331593 0.28733,-0.168196 2.57559,-0.961138 2.81065,-1.033226 0.23512,-0.07208 0.32913,-0.144177 0.39181,-0.16821 0.0626,-0.02393 0.29777,-0.177806 0.35002,-0.197048 0.0523,-0.01925 0.31869,-0.148963 0.31869,-0.148963 0,0 0.22985,-0.235483 0.3814,-0.297963 0.15149,-0.06251 0.30299,-0.110523 0.34999,-0.182612 0.0417,-0.07209 0.29779,-0.398865 0.35001,-0.422899 0.0521,-0.02891 0.12539,0.01925 0.14631,0 0.0211,-0.01925 0.1776,-0.124935 0.20894,-0.124935 0.0316,0 0.0732,-0.01934 0.094,0 0.0209,0.01925 0.14632,-0.0097 0.19334,0.02393 0.0468,0.03359 0.0468,0.06727 0.0468,0.06727 0,0 0.0941,0.03358 0.12012,0.177804 v 0 c 0,0 0.14625,0.01427 0.14625,0.216251 0,0.201863 -0.14625,0.350825 -0.14625,0.350825 0,0 -0.15676,0.148979 -0.18809,0.245099 -0.0316,0.0961 -0.57468,0.312382 -0.6844,0.374845 -0.10966,0.06251 0.0261,0.278731 -0.14626,0.384461 -0.17242,0.110525 -0.50155,0.09612 -0.56424,0.04808 -0.0626,-0.04808 -0.18285,0.0961 -0.31344,0.144147 -0.13061,0.04808 -0.31866,-0.02891 -0.38656,0 -0.0679,0.0289 -1.78673,1.081326 -1.96957,1.259124 -0.18285,0.177828 -0.31346,0.293155 -0.56423,0.437325 -0.25075,0.144169 -0.8881,0.331583 -1.07618,0.41328 -0.18808,0.08171 -0.44407,0.4806 -0.57992,0.605536 -0.1358,0.12495 -0.47017,0.355633 -0.47017,0.355633 0,0 -0.36569,0.389255 -0.6269,0.831387 -0.26123,0.442132 -0.67915,0.917899 -0.67915,0.917899 0,0 0.29256,0.523831 0.31867,0.735287 0.0261,0.211443 -0.13583,0.317175 -0.13583,0.317175 l -0.96648,0.773725 0.49631,1.489779 c 0,0 -0.18283,0.35081 -0.70528,0.615153 0,0 0.15672,1.201421 0,2.364428 -0.15673,1.162999 0.094,1.403279 0.1933,1.595519 0.094,0.19222 0.3239,0.74007 0.35002,1.19183 0.0261,0.45173 -0.0836,0.88906 -0.094,0.99959 -0.009,0.11049 -0.0261,1.29756 0.0837,1.84062 0.10966,0.54304 0.14627,0.668 0.26121,0.81216 0.11492,0.14418 0.19853,0.26912 0.19853,0.36525 0,0.096 -0.0417,0.26431 -0.43885,0.48057 -0.39706,0.21623 -1.19896,0.68549 -1.19896,0.68549" style="fill:#d75455;fill-opacity:0.89019608;stroke:#000000;stroke-width:0.48337787;stroke-linecap:round;stroke-linejoin:round;stroke-miterlimit:4;stroke-dasharray:none;stroke-opacity:1" inkscape:export-xdpi="51.827873" inkscape:export-ydpi="51.827873"></path> <path style="fill:none;stroke:#000000;stroke-width:0.48337787;stroke-linecap:round;stroke-linejoin:round;stroke-miterlimit:4;stroke-dasharray:none;stroke-opacity:1" d="m 66.001177,106.70267 -0.45007,-1.01246 -0.532668,2.06714 -0.504224,-3.33069 -0.783185,4.69068 -0.684869,-5.92601 -0.687375,3.51134 h -0.920782" id="path4845-0" inkscape:connector-curvature="0" sodipodi:nodetypes="cccccccc" inkscape:export-xdpi="51.827873" inkscape:export-ydpi="51.827873"></path> <path style="fill:none;stroke:#000000;stroke-width:0.48337787;stroke-linecap:round;stroke-linejoin:round;stroke-miterlimit:4;stroke-dasharray:none;stroke-opacity:1" d="m 66.001177,106.70267 h 5.00181" id="path4943" inkscape:connector-curvature="0" sodipodi:nodetypes="cc" inkscape:export-xdpi="51.827873" inkscape:export-ydpi="51.827873"></path> <path style="fill:none;stroke:#000000;stroke-width:0.48372054;stroke-linecap:round;stroke-linejoin:round;stroke-miterlimit:4;stroke-dasharray:none;stroke-opacity:1" d="m 90.155302,106.76934 5.081959,0.0329 h 0.920769 l 0.687368,-3.51134 0.832659,5.92599 0.635406,-4.69066 0.504227,3.33066 0.532675,-2.06716 0.450068,1.01251 H 109.9552" id="path4845-0-5" inkscape:connector-curvature="0" sodipodi:nodetypes="cccccccccc" inkscape:export-xdpi="51.827873" inkscape:export-ydpi="51.827873"></path> <path style="fill:none;stroke:#000000;stroke-width:0.48337787;stroke-linecap:round;stroke-linejoin:round;stroke-miterlimit:4;stroke-dasharray:none;stroke-opacity:1" d="m 110.86561,106.8114 h 10.99771" id="path942" inkscape:connector-curvature="0" inkscape:export-xdpi="51.827873" inkscape:export-ydpi="51.827873"></path> <path style="fill:none;stroke:#000000;stroke-width:0.48337787;stroke-linecap:round;stroke-linejoin:round;stroke-miterlimit:4;stroke-dasharray:none;stroke-opacity:1" d="m 29.098199,106.65001 16.451602,0.0362 0.871688,9.9e-4" id="path4873" inkscape:connector-curvature="0" sodipodi:nodetypes="cc"></path> <path style="fill:none;stroke:#000000;stroke-width:0.48372054;stroke-linecap:butt;stroke-linejoin:miter;stroke-miterlimit:4;stroke-dasharray:none;stroke-opacity:1" d="m 71.003011,106.70269 19.152291,0.0666" id="path2914" inkscape:connector-curvature="0"></path> <path style="fill:none;stroke:#000000;stroke-width:0.48372054;stroke-linecap:butt;stroke-linejoin:miter;stroke-miterlimit:4;stroke-dasharray:none;stroke-opacity:1" d="m 109.95519,106.80227 0.90914,0.009" id="path2916" inkscape:connector-curvature="0"></path> <path inkscape:connector-curvature="0" id="path4894" d="m 78.683566,103.94016 c 0.164636,0.15144 0.872501,0.16661 1.020689,0.0303 -0.144673,0.32601 -0.265435,0.58182 -0.371842,0.83396 -0.0742,-0.0191 -0.134424,-0.0349 -0.176917,-0.0465 -0.373124,-0.10099 -0.636544,-0.53506 -0.47193,-0.81777 v 0" style="fill:#ffffff;stroke:#000000;stroke-width:0.4833779;stroke-linecap:round;stroke-linejoin:round;stroke-miterlimit:4;stroke-dasharray:none;stroke-opacity:1"></path> </g> </svg> 