<?xml version="1.0" encoding="UTF-8" standalone="no"?> <!-- Created with Inkscape (http://www.inkscape.org/) --> <svg xmlns:dc="http://purl.org/dc/elements/1.1/" xmlns:cc="http://creativecommons.org/ns#" xmlns:rdf="http://www.w3.org/1999/02/22-rdf-syntax-ns#" xmlns:svg="http://www.w3.org/2000/svg" xmlns="http://www.w3.org/2000/svg" xmlns:sodipodi="http://sodipodi.sourceforge.net/DTD/sodipodi-0.dtd" xmlns:inkscape="http://www.inkscape.org/namespaces/inkscape" width="308.97525" height="91.127724" viewBox="0 0 81.749707 24.110878" id="svg3798" inkscape:version="0.92.2 (5c3e80d, 2017-08-06)" sodipodi:docname="healthyFighterSimple.svg"> <defs id="defs3792"></defs> <metadata id="metadata3795"></metadata> <g inkscape:label="Calque 1" inkscape:groupmode="layer" id="layer1" transform="translate(-28.852915,-85.441225)"> <path style="fill:none;stroke:#000000;stroke-width:0.4536784;stroke-linecap:round;stroke-linejoin:round;stroke-miterlimit:4;stroke-dasharray:none;stroke-opacity:1" d="m 53.721446,106.63891 c 0.168318,0.0907 0.497564,0.10607 0.951048,0.0604 0.0831,-0.008 0.153789,-0.0298 0.213847,-0.0616" id="path1152" inkscape:connector-curvature="0" inkscape:export-xdpi="51.827873" inkscape:export-ydpi="51.827873"></path> <path style="fill:none;stroke:#000000;stroke-width:0.4536784;stroke-linecap:round;stroke-linejoin:round;stroke-miterlimit:4;stroke-dasharray:none;stroke-opacity:1" d="m 56.880981,106.79703 0.541219,0.002" id="path970" inkscape:connector-curvature="0" inkscape:export-xdpi="51.827873" inkscape:export-ydpi="51.827873"></path> <path style="fill:none;stroke:#000000;stroke-width:0.4536784;stroke-linecap:round;stroke-linejoin:round;stroke-miterlimit:4;stroke-dasharray:none;stroke-opacity:1" d="m 44.263317,106.78269 12.617664,0.0141" id="path968" inkscape:connector-curvature="0" sodipodi:nodetypes="cc" inkscape:export-xdpi="51.827873" inkscape:export-ydpi="51.827873"></path> <g id="g1009" transform="matrix(0.1730258,0,0,0.18258774,250.44678,31.66954)" inkscape:export-xdpi="51.827873" inkscape:export-ydpi="51.827873" style="stroke:#000000;stroke-width:2.5524478;stroke-linecap:round;stroke-linejoin:round;stroke-miterlimit:4;stroke-dasharray:none;stroke-opacity:1"> <path inkscape:connector-curvature="0" id="path1150" d="m -1136.971,410.59361 c -0.4815,-0.24574 -0.7351,-0.59245 -0.7351,-1.04963 -1.1196,0.26128 -3.8434,-0.22362 -3.8434,-1.86558 0,-1.64192 0.9703,-1.49264 1.4927,-2.01504 0.5224,-0.52239 0.7462,-0.52239 0.5224,-1.60464 -0.224,-1.08207 -0.709,-1.11935 -0.709,-1.79102 0,-0.6717 0.2611,-1.04748 -1.045,-0.82243 -1.3061,0.22529 -5.2616,1.27008 -10.5976,2.1658 0,0 -5.2242,2.08957 -8.3212,2.08957 -0.4477,2.9853 -3.0047,4.37767 -5.6539,4.37767 -2.6492,0 -7.3135,-1.00754 -10.5599,-1.23156 -3.2466,-0.22402 -6.0639,0.46649 -8.2468,-1.71646 -2.183,-2.18318 -2.612,-1.97778 -2.612,-1.97778 0,0 -0.5104,0.74665 -2.7175,1.21975 -0.3508,1.30151 -1.1586,3.67545 -1.6368,5.0089" style="fill:none;stroke:#000000;stroke-width:2.5524478;stroke-linecap:round;stroke-linejoin:round;stroke-miterlimit:4;stroke-dasharray:none;stroke-opacity:1" sodipodi:nodetypes="ccsccscccsccccc"></path> <g id="g996" style="stroke:#000000;stroke-width:2.5524478;stroke-linecap:round;stroke-linejoin:round;stroke-miterlimit:4;stroke-dasharray:none;stroke-opacity:1"> <g id="g979" style="stroke:#000000;stroke-width:2.5524478;stroke-linecap:round;stroke-linejoin:round;stroke-miterlimit:4;stroke-dasharray:none;stroke-opacity:1"> <path inkscape:connector-curvature="0" id="path1154" d="m -1130.2385,410.58721 c 2.4846,-1.24771 1.8239,-5.40468 1.8239,-6.97614 0,-1.79102 0.448,-3.76838 0.448,-6.3433 v -10e-5 0 c 0,-2.57471 -2.4629,-3.0971 -3.806,-2.42543 0,0 -0.8208,-0.97025 -1.7537,-1.34336 -0.933,-0.37311 -3.9556,0.48513 -4.9259,0.67169 -0.9702,0.18655 -0.5596,0.67167 -0.5596,0.67167 0,0 -4.8704,1.21448 -8.4153,0.46805 -3.4715,-0.90578 -4.7824,-1.59445 -10.7655,-2.32067 -5.7844,0.38805 -7.3695,0.11042 -12.1084,-0.8971 -4.7393,-1.00773 -5.4479,-2.01484 -8.4333,-3.7688 -2.985,-1.75394 -6.8286,-1.34336 -8.5451,-0.97024 -1.7167,0.37331 -2.6864,1.60465 -7.6868,0.59694 -4.9999,-1.00753 -11.9035,-1.08207 -13.9933,-0.78351 -2.0896,0.29838 -2.6493,-0.93297 -7.8734,-0.44765 -5.2242,0.48513 -7.8362,3.65678 -8.2465,4.55228 -0.4106,0.89551 -0.1868,2.83581 -1.3433,2.53724 -1.157,-0.29857 -3.3211,-1.9403 -4.2915,-2.91055 -0.9702,-0.97025 -3.6195,-1.00752 -4.9254,-1.4179 -1.3061,-0.41039 -2.6867,0.97025 -3.9181,1.23154 -1.2313,0.2611 -1.7164,1.679 -3.4329,2.4625 -1.7164,0.78369 -0.5224,2.16432 -1.6419,3.28387 -1.1194,1.11954 -0.8956,1.41811 -1.1568,3.69404 -0.2614,2.27635 3.2463,2.12705 3.2463,2.12705 0,0 0.7463,0.55967 1.1942,1.86576 0.4478,1.3061 1.8284,1.49245 2.7239,2.05232 0.8958,0.55966 1.1194,1.64194 1.4925,2.98509 0.3733,1.34337 1.6419,-0.0372 2.1645,-0.0372 0.5226,0 0.7089,0.85824 1.0076,0.85824 0,0.41059 0.3731,0.44787 1.0074,0.44787 0.1645,0 0.2813,0.0527 0.4005,0.13067" style="fill:none;stroke:#000000;stroke-width:2.5524478;stroke-linecap:round;stroke-linejoin:round;stroke-miterlimit:4;stroke-dasharray:none;stroke-opacity:1"></path> <path sodipodi:nodetypes="cccsccc" inkscape:connector-curvature="0" id="path1146" d="m -1216.0501,410.54953 c 0.774,-0.33907 1.9009,-0.13886 2.8369,-0.65534 0.8031,-0.44308 1.0911,-2.33577 1.2329,-3.82366 2.6785,0.70751 4.7617,0.8359 7.3863,0.8359 1.8199,0 3.7127,-0.39671 8.8065,-0.18654 0.25,0.0102 0.4914,0.0173 0.7277,0.0228 -0.2221,1.65602 -0.7025,3.37693 -0.9891,4.45572" style="fill:none;stroke:#000000;stroke-width:2.5524478;stroke-linecap:round;stroke-linejoin:round;stroke-miterlimit:4;stroke-dasharray:none;stroke-opacity:1"></path> <path inkscape:connector-curvature="0" id="path1138" d="m -1228.7774,410.59719 c 0.7005,-0.77424 0.8997,-2.09944 1.3471,-3.09361 0.6717,-1.49265 6.5823,-2.22192 8.2843,-2.83334 0.8343,-0.29961 2.0229,0.0773 3.7748,0.56131 -0.087,0.50564 -0.2683,1.26821 -0.6031,1.60302 -0.5225,0.52261 -2.4628,0.85823 -3.4329,1.12139 -0.9703,0.26318 -2.0151,0.37126 -2.7989,0.55802 -0.7834,0.18655 -1.4737,0.57809 -1.8284,0.93277 0,0 -0.927,-0.12092 -1.2314,0.5224 -0.2712,0.5728 0.4319,0.63401 0.9677,0.63639" style="fill:none;stroke:#000000;stroke-width:2.5524478;stroke-linecap:round;stroke-linejoin:round;stroke-miterlimit:4;stroke-dasharray:none;stroke-opacity:1"></path> </g> <g id="g985" style="stroke:#000000;stroke-width:2.5524478;stroke-linecap:round;stroke-linejoin:round;stroke-miterlimit:4;stroke-dasharray:none;stroke-opacity:1"> <path inkscape:connector-curvature="0" id="path1144" d="m -1218.1955,410.58886 c -0.099,0.67525 1.0463,0.79587 1.8106,0.16378 0.1016,-0.084 0.2139,-0.15015 0.3348,-0.20311" style="fill:none;stroke:#000000;stroke-width:2.5524478;stroke-linecap:round;stroke-linejoin:round;stroke-miterlimit:4;stroke-dasharray:none;stroke-opacity:1"></path> <path inkscape:connector-curvature="0" id="path1142" d="m -1221.422,410.57832 c 1.1194,-0.24577 2.2397,-0.38534 3.3954,-0.38534 -0.099,0.14764 -0.152,0.27994 -0.1689,0.39588" style="fill:none;stroke:#000000;stroke-width:2.5524478;stroke-linecap:round;stroke-linejoin:round;stroke-miterlimit:4;stroke-dasharray:none;stroke-opacity:1"></path> <path inkscape:connector-curvature="0" id="path1140" d="m -1224.2982,410.60554 c 0.1274,5.7e-4 0.2453,-0.002 0.3385,-0.002 0,0.5224 1.2686,0.26131 2.4253,0 0.037,-0.008 0.075,-0.0168 0.1124,-0.025" style="fill:none;stroke:#000000;stroke-width:2.5524478;stroke-linecap:round;stroke-linejoin:round;stroke-miterlimit:4;stroke-dasharray:none;stroke-opacity:1"></path> <path inkscape:connector-curvature="0" id="path830" d="m -1232.5524,410.58208 c 0.3407,0.22295 0.701,0.65302 2.2488,0.65302 0.6977,0 1.175,-0.2497 1.5262,-0.63791" style="fill:none;stroke:#000000;stroke-width:2.5524478;stroke-linecap:round;stroke-linejoin:round;stroke-miterlimit:4;stroke-dasharray:none;stroke-opacity:1"></path> </g> </g> </g> <g transform="matrix(0.1730258,0,0,0.18258774,250.44678,31.66954)" id="g4990" inkscape:export-xdpi="51.827873" inkscape:export-ydpi="51.827873" style="stroke:#000000;stroke-width:2.5524478;stroke-linecap:round;stroke-linejoin:round;stroke-miterlimit:4;stroke-dasharray:none;stroke-opacity:1"> <path inkscape:connector-curvature="0" id="path4894" d="m -1031.6179,394.66069 c 0.8338,0.83375 4.4188,0.91726 5.1693,0.16681 -0.7327,1.79486 -1.3443,3.20326 -1.8832,4.59139 -0.3758,-0.10516 -0.6808,-0.19245 -0.896,-0.25592 -1.8897,-0.55598 -3.2238,-2.94578 -2.3901,-4.50228 v 0" style="fill:none;stroke:#000000;stroke-width:2.5524478;stroke-linecap:round;stroke-linejoin:round;stroke-miterlimit:4;stroke-dasharray:none;stroke-opacity:1"></path> <path sodipodi:nodetypes="ccccccccccccsccscssscccccccsscccccccccccccc" inkscape:connector-curvature="0" id="path860" d="m -970.14299,411.83184 c 0.88307,-0.86287 1.64404,-1.69156 1.99853,-2.44207 0.94493,-2.00059 2.13971,-4.58531 1.16731,-5.55794 -0.97261,-0.97261 -1.41737,1.19524 -2.22321,2.00107 -0.80582,0.80582 -3.83509,1.33388 -6.33609,1.77843 -2.50121,0.44479 -5.55815,1.83405 -9.78267,1.1115 -4.22405,-0.72231 -14.00632,-2.88993 -17.11888,-3.55687 -3.1128,-0.66695 -2.5571,-2.16786 -6.5589,-2.61242 -1.6655,-0.18502 -4.1493,-0.70723 -6.6179,-1.29382 0.9377,-1.90473 2.1539,-4.40547 2.7828,-5.82084 1.1117,-2.50122 2.7236,-3.16816 2.39,-5.72497 -0.3336,-2.5568 -0.3611,-5.69728 0.2782,-6.3363 0.639,-0.63926 2.3898,0.11138 3.1679,0.11138 0.7782,0 2.3903,1.83382 3.3906,2.11203 1.0003,0.27776 4.27966,0.50037 5.83596,0.22216 1.5565,-0.27776 4.94682,-2.00106 4.94682,-4.27964 0,-2.27883 1.3339,-3.33495 0.83373,-4.39109 -0.50038,-1.05589 -1.05588,-3.11254 -2.27881,-3.89069 -1.22294,-0.77813 -4.11304,-1.44531 -5.72514,-1.44531 -1.61186,0 -4.39096,0.77836 -5.66946,0.77836 -1.2785,0 -2.8972,0.69397 -3.2794,1.61189 -0.5557,1.33411 -3.6676,0.16701 -3.1679,-1.77845 0.9449,-1.72284 2.0569,-4.66861 2.7236,-6.22488 0.667,-1.55651 4.3355,-5.61376 6.2251,-6.55894 1.89,-0.94469 5.39166,-2.112 7.72586,-3.44613 2.33466,-1.33388 5.5861,-2.97344 7.28149,-1.27829 1.69516,1.69517 2.72336,2.61242 3.77971,3.05696 1.05614,0.44455 1.61189,1.66724 2.16762,1.66724 0.55576,0 0.83376,-0.88932 0.83376,-1.55627 v -1.72307 c 0,0 1.8338,1.94547 2.33418,1.44531 0.50038,-0.50015 -0.36126,-1.13941 -1.00031,-1.77866 -0.63902,-0.63904 -1.97316,-2.4177 -2.4456,-2.89017 -0.47246,-0.47224 -2.16738,-1.72307 -3.33473,-1.94547 -1.16731,-0.22238 -5.05822,-1.00052 -7.7816,-0.33358 -2.72342,0.66695 -12.20038,2.52889 -13.50648,3.83533 -1.3061,1.30619 -8.1703,7.94817 -9.3932,9.67103 -1.2227,1.72305 -3.5018,3.16815 -5.2802,4.05748 -1.7784,0.88956 -6.9476,4.05749 -11.6718,7.83698 -4.7245,3.7795 -9.2265,9.72686 -10.8942,13.0062 -1.6673,3.27935 -4.0019,5.94714 -4.78,7.39222 -0.7782,1.44529 -1.3764,5.07582 -5.4338,5.96493 -3.6523,0.80072 -10.7805,4.06608 -12.5803,8.83855" style="fill:none;stroke:#000000;stroke-width:2.5524478;stroke-linecap:round;stroke-linejoin:round;stroke-miterlimit:4;stroke-dasharray:none;stroke-opacity:1"></path> </g> <path sodipodi:nodetypes="cssssssssscccsscscssscssssssscssccsssscccscsssccsccsssscsscscsssscssscsssscssssccssssccsssssssssscsccsssscccscsscssssssscscsccccscssssssc" inkscape:connector-curvature="0" id="path4923" d="m 99.937527,106.89813 c 0.0236,-0.0551 0.493133,-0.67985 0.525183,-0.79579 0.032,-0.11596 0.0411,-0.24641 0.1648,-0.4348 0.12361,-0.18842 0.24264,-0.47827 0.21973,-0.79711 -0.0229,-0.31887 -0.0824,-0.8599 -0.20142,-1.30435 -0.11904,-0.44446 -0.32045,-1.28505 -0.34334,-1.72951 -0.0229,-0.44443 -0.18314,-0.95651 -0.27926,-1.13044 -0.0961,-0.17392 -0.164813,-0.35749 -0.187693,-0.53623 -0.023,-0.178745 -0.005,-0.376815 -0.0595,-0.512105 -0.0549,-0.135252 -0.24721,-0.966179 -0.30671,-1.028987 -0.0595,-0.06288 -0.27012,-0.787448 -0.27012,-1.183602 h -0.0732 l 0.0365,-0.666662 c 0,0 -0.0961,-0.0054 -0.0961,-0.0773 0,-0.07246 0,-0.328479 -0.105276,-0.429949 -0.10532,-0.101462 -0.187695,-0.294685 -0.187695,-0.294685 0,0 -0.499034,-0.149746 -0.54022,-0.149746 -0.04116,0 -0.0686,-0.06282 -0.0686,-0.06282 0,0 -0.357071,-0.07246 -0.80114,-0.159418 -0.44405,-0.08692 -0.920172,-0.193232 -1.103284,-0.188412 -0.183131,0.0054 -0.920192,-0.0918 -0.998013,-0.06283 -0.07783,0.02905 0.315878,0.449274 0.370822,1.05796 0.05948,0.608711 0.05948,0.772968 0.07321,0.893727 0.01363,0.120793 0.04125,0.400984 -0.256372,0.463771 -0.297562,0.06288 -0.517315,-0.193218 -0.622596,-0.231884 -0.105275,-0.03864 -0.233482,-0.135256 -0.325029,-0.342994 -0.09157,-0.207727 -0.119051,-0.51207 -0.160247,-0.584555 -0.04111,-0.07246 -0.137315,-0.09658 -0.201417,-0.381634 -0.06408,-0.285029 -0.590566,-0.719814 -0.686709,-0.898551 -0.09613,-0.178761 -0.183109,-0.739148 0.04121,-1.159434 0,0 -0.03661,-0.17392 -0.02748,-0.357492 0.0091,-0.183587 0.02286,-0.560383 -0.01364,-0.599052 -0.03665,-0.03862 -0.668377,-0.599031 -0.668377,-0.599031 0,0 -0.187697,0.04833 -0.320469,0 -0.132746,-0.04833 -0.585972,-0.342992 -0.746197,-0.502424 -0.160232,-0.159418 -0.439485,-0.449272 -0.325042,-1.014495 0.114447,-0.565209 0.677538,-1.043489 1.226908,-1.16427 0.549354,-0.120764 0.544761,0.328505 0.540194,0.343006 -0.0051,0.0145 0.379965,0.183582 0.544772,0.478258 0,0 0.08242,0.08215 0.07325,0.149759 0,0 0.302165,0.251221 0.40745,0.584545 0,0 0.512746,-0.584545 0.572259,-0.618357 0.05953,-0.03376 0.265514,-0.285025 0.453211,-0.362311 0.192274,-0.0773 0.347927,-0.154592 0.897282,-0.16427 0.549344,-0.0097 0.929334,-0.164252 1.098727,-0.169084 0.169392,-0.0054 0.727889,-0.09179 0.801121,-0.18358 0.07321,-0.09179 0.384567,-0.285017 0.87441,-0.400957 0.489817,-0.111116 1.3093,-0.256053 1.3093,-0.256053 0,0 0.11443,-0.101432 0.27467,-0.159412 0.16022,-0.05799 0.59057,-0.0773 0.65466,-0.111115 0.0595,-0.03377 0.24262,-0.159428 0.65922,-0.18358 0,0 0.0778,-0.03862 0.12361,-0.09662 0.0457,-0.05798 0.12818,-0.0966 0.16022,-0.101442 0.0321,-0.0054 0.0824,0.04347 0.0824,0.06762 0,0.02405 -0.0367,0.101462 -0.0411,0.101462 -0.005,0 -0.10529,0.09662 -0.10529,0.09662 0,0 0.14193,-0.140116 0.17854,-0.198081 0.0365,-0.05799 0.1053,-0.05799 0.12819,-0.01935 0.0229,0.03879 0.0229,0.125607 -0.005,0.149753 0,0 0.0411,0.0097 0.0504,0.06284 0.008,0.05312 -0.0595,0.130416 -0.17399,0.207724 0,0 0.0138,0.06761 -0.005,0.101452 -0.0183,0.03378 -0.10988,0.149762 -0.10071,0.183581 0.008,0.03377 0.10987,0.05799 0.1053,0.188399 -0.005,0.130448 -0.0504,0.125614 -0.0642,0.125614 -0.0136,0 -0.0686,-0.09179 -0.0686,-0.09179 0,0 -0.0411,0.115948 -0.25638,0.115948 -0.21515,0 -0.64548,0.0145 -0.66838,0.0145 -0.0229,0 -0.58139,0.149765 -0.62718,0.173919 -0.0457,0.02405 -0.087,-0.02899 -0.087,-0.02899 0,0 -0.741633,0.497608 -1.318463,0.729487 -0.576824,0.231894 -0.59514,0.256022 -0.691271,0.265705 -0.09614,0.0097 -0.379981,-0.0054 -0.659226,0.07247 -0.279253,0.0773 -0.434916,0.198082 -0.55394,0.23673 -0.119033,0.03879 -0.618037,0.24155 -0.677539,0.265704 0,0 0.448636,0.241538 0.732475,0.425118 0.28384,0.183595 0.975099,0.212566 1.226922,0.115945 0.251786,-0.09661 0.274668,0.02899 0.306703,0.02899 0.03204,0 0.233475,-0.06761 0.288402,-0.02899 0.05491,0.03863 0.07787,0.07246 0.07787,0.07246 0,0 0.1053,-0.08216 0.14649,-0.111103 0.0366,-0.02906 0.34795,-0.294694 0.39372,-0.352673 0.0457,-0.05798 0.20143,-0.173904 0.21518,-0.183572 0.0136,-0.0098 0.0183,-0.08702 0.064,-0.115939 0.0457,-0.02906 0.0824,-0.07247 0.119017,-0.06284 0.0366,0.0097 0.0595,-0.159404 0.10988,-0.154571 0.0549,0.0054 0.33876,-0.08701 0.41659,-0.05312 0,0 0.55394,-0.565225 1.1216,-0.917891 0.56767,-0.35265 0.82862,-0.555556 0.88356,-0.61834 0.055,-0.06283 0.12817,-0.212574 0.33418,-0.328528 0.206,-0.115938 0.37082,-0.159412 0.43948,-0.212559 0.0686,-0.05319 0.24264,-0.140085 0.30215,-0.164245 0.0595,-0.02405 0.1053,-0.169085 0.18771,-0.24156 0.0824,-0.07247 0.22431,-0.164238 0.4761,-0.333333 0.25179,-0.169078 2.25697,-0.966181 2.46296,-1.038647 0.20603,-0.07246 0.28841,-0.144933 0.34334,-0.169093 0.0549,-0.02405 0.26093,-0.178739 0.30672,-0.198081 0.0458,-0.01935 0.27926,-0.149745 0.27926,-0.149745 0,0 0.20142,-0.236719 0.33422,-0.299526 0.13275,-0.06284 0.26551,-0.111103 0.3067,-0.183571 0.0365,-0.07247 0.26095,-0.400958 0.30671,-0.425118 0.0457,-0.02906 0.10988,0.01935 0.12821,0 0.0185,-0.01935 0.15563,-0.12559 0.18309,-0.12559 0.0277,0 0.0641,-0.01944 0.0824,0 0.0183,0.01935 0.12822,-0.0098 0.16942,0.02405 0.041,0.03377 0.041,0.06762 0.041,0.06762 0,0 0.0825,0.03376 0.10526,0.178737 v 0 c 0,0 0.12816,0.01435 0.12816,0.217386 0,0.202922 -0.12816,0.352666 -0.12816,0.352666 0,0 -0.13736,0.14976 -0.16482,0.246385 -0.0277,0.0966 -0.50359,0.314021 -0.59973,0.376812 -0.0961,0.06284 0.0229,0.280193 -0.12817,0.386478 -0.15109,0.111105 -0.43951,0.09662 -0.49444,0.04833 -0.0549,-0.04833 -0.16023,0.0966 -0.27467,0.144903 -0.11445,0.04833 -0.27924,-0.02906 -0.33874,0 -0.0595,0.02905 -1.5657,1.087 -1.72592,1.265731 -0.16023,0.178761 -0.27468,0.294693 -0.49443,0.43962 -0.21973,0.144925 -0.77824,0.333322 -0.94305,0.415448 -0.16481,0.08214 -0.38914,0.483122 -0.50818,0.608713 -0.119,0.125606 -0.41201,0.357499 -0.41201,0.357499 0,0 -0.32045,0.391298 -0.54935,0.83575 -0.22891,0.444452 -0.59513,0.922715 -0.59513,0.922715 0,0 0.25637,0.526579 0.27925,0.739145 0.0229,0.212552 -0.11903,0.318839 -0.11903,0.318839 l -0.84692,0.777785 0.43491,1.497596 c 0,0 -0.16021,0.35265 -0.61803,0.61838 0,0 0.13733,1.207725 0,2.376835 -0.13734,1.169099 0.0824,1.410639 0.16939,1.603889 0.0824,0.19323 0.28383,0.74395 0.30672,1.19808 0.0229,0.4541 -0.0733,0.89373 -0.0824,1.00484 -0.008,0.11107 -0.0229,1.30437 0.0733,1.85028 0.0961,0.54588 0.12818,0.6715 0.2289,0.81642 0.1007,0.14493 0.17397,0.27053 0.17397,0.36716 0,0.0965 -0.0365,0.2657 -0.38456,0.48309 -0.34794,0.21737 -1.05064,0.68909 -1.05064,0.68909" style="fill:none;stroke:#000000;stroke-width:0.4536784;stroke-linecap:round;stroke-linejoin:round;stroke-miterlimit:4;stroke-dasharray:none;stroke-opacity:1" inkscape:export-xdpi="51.827873" inkscape:export-ydpi="51.827873"></path> <path style="fill:none;stroke:#000000;stroke-width:0.4536784;stroke-linecap:round;stroke-linejoin:round;stroke-miterlimit:4;stroke-dasharray:none;stroke-opacity:1" d="m 61.420881,106.79799 -0.394393,-1.01777 -0.466774,2.07798 -0.441849,-3.34816 -0.6863,4.71529 -0.600147,-5.9571 -0.602342,3.52976 H 57.4222" id="path4845-0" inkscape:connector-curvature="0" sodipodi:nodetypes="cccccccc" inkscape:export-xdpi="51.827873" inkscape:export-ydpi="51.827873"></path> <path style="fill:none;stroke:#000000;stroke-width:0.4536784;stroke-linecap:round;stroke-linejoin:round;stroke-miterlimit:4;stroke-dasharray:none;stroke-opacity:1" d="m 61.420881,106.79799 h 4.383057" id="path4943" inkscape:connector-curvature="0" sodipodi:nodetypes="cc" inkscape:export-xdpi="51.827873" inkscape:export-ydpi="51.827873"></path> <path style="fill:none;stroke:#000000;stroke-width:0.4536784;stroke-linecap:round;stroke-linejoin:round;stroke-miterlimit:4;stroke-dasharray:none;stroke-opacity:1" d="m 82.586998,106.86501 4.45329,0.0331 h 0.806865 l 0.602336,-3.52976 0.729654,5.95708 0.556803,-4.71527 0.441851,3.34814 0.46678,-2.07801 0.394392,1.01782 h 8.898558" id="path4845-0-5" inkscape:connector-curvature="0" sodipodi:nodetypes="cccccccccc" inkscape:export-xdpi="51.827873" inkscape:export-ydpi="51.827873"></path> <path style="fill:none;stroke:#000000;stroke-width:0.4536784;stroke-linecap:round;stroke-linejoin:round;stroke-miterlimit:4;stroke-dasharray:none;stroke-opacity:1" d="m 100.73532,106.90729 h 9.63723" id="path942" inkscape:connector-curvature="0" inkscape:export-xdpi="51.827873" inkscape:export-ydpi="51.827873"></path> <path style="fill:none;stroke:#000000;stroke-width:0.4536784;stroke-linecap:round;stroke-linejoin:round;stroke-miterlimit:4;stroke-dasharray:none;stroke-opacity:1" d="M 43.499426,106.74934 H 29.082985" id="path4873" inkscape:connector-curvature="0" sodipodi:nodetypes="cc"></path> </g> </svg> 