<?xml version="1.0" encoding="UTF-8" standalone="no"?> <!-- Created with Inkscape (http://www.inkscape.org/) --> <svg xmlns:dc="http://purl.org/dc/elements/1.1/" xmlns:cc="http://creativecommons.org/ns#" xmlns:rdf="http://www.w3.org/1999/02/22-rdf-syntax-ns#" xmlns:svg="http://www.w3.org/2000/svg" xmlns="http://www.w3.org/2000/svg" xmlns:sodipodi="http://sodipodi.sourceforge.net/DTD/sodipodi-0.dtd" xmlns:inkscape="http://www.inkscape.org/namespaces/inkscape" width="392.76605" height="95.728317" viewBox="0 0 103.91936 25.328118" id="svg3798" inkscape:version="0.92.2 (5c3e80d, 2017-08-06)" sodipodi:docname="healthyFighterSimple.svg"> <defs id="defs3792"></defs> <metadata id="metadata3795"></metadata> <g inkscape:label="Calque 1" inkscape:groupmode="layer" id="layer1" transform="translate(-29.882101,-85.907805)"> <path style="fill:none;stroke:#000000;stroke-width:0.52388197;stroke-linecap:round;stroke-linejoin:round;stroke-miterlimit:4;stroke-dasharray:none;stroke-opacity:1" d="m 65.502581,108.32312 0.688349,0.002" id="path970" inkscape:connector-curvature="0" inkscape:export-xdpi="51.827873" inkscape:export-ydpi="51.827873"></path> <path style="fill:none;stroke:#000000;stroke-width:0.52388197;stroke-linecap:round;stroke-linejoin:round;stroke-miterlimit:4;stroke-dasharray:none;stroke-opacity:1" d="m 49.454818,108.30809 16.047763,0.0148" id="path968" inkscape:connector-curvature="0" sodipodi:nodetypes="cc" inkscape:export-xdpi="51.827873" inkscape:export-ydpi="51.827873"></path> <g id="g1009" transform="matrix(0.22006269,0,0,0.19142857,310.94547,26.876284)" inkscape:export-xdpi="51.827873" inkscape:export-ydpi="51.827873" style="fill:#d65456;fill-opacity:0.88983053;fill-rule:nonzero;stroke:#000000;stroke-width:2.5524478;stroke-linecap:round;stroke-linejoin:round;stroke-miterlimit:4;stroke-dasharray:none;stroke-opacity:1"> <g id="g996" style="fill:#d65456;fill-opacity:0.88983053;fill-rule:nonzero;stroke:#000000;stroke-width:2.5524478;stroke-linecap:round;stroke-linejoin:round;stroke-miterlimit:4;stroke-dasharray:none;stroke-opacity:1"> <g id="g979" style="fill:#d65456;fill-opacity:0.88983053;fill-rule:nonzero;stroke:#000000;stroke-width:2.5524478;stroke-linecap:round;stroke-linejoin:round;stroke-miterlimit:4;stroke-dasharray:none;stroke-opacity:1"></g> <g id="g985" style="fill:#d65456;fill-opacity:0.88983053;fill-rule:nonzero;stroke:#000000;stroke-width:2.5524478;stroke-linecap:round;stroke-linejoin:round;stroke-miterlimit:4;stroke-dasharray:none;stroke-opacity:1"> <path id="path830" style="fill:#d65456;fill-opacity:0.88983053;fill-rule:evenodd;stroke:#000000;stroke-width:2.5524478;stroke-linecap:round;stroke-linejoin:round;stroke-miterlimit:4;stroke-dasharray:none;stroke-opacity:1" d="m -1234.9853,424.41487 c 0.3407,0.22295 0.701,0.65302 2.2488,0.65302 0.6977,0 1.175,-0.2497 1.5262,-0.63791 m 4.4792,0.008 c 0.1274,5.7e-4 0.2453,-0.002 0.3385,-0.002 0,0.5224 1.2686,0.26131 2.4253,0 0.037,-0.008 0.075,-0.0168 0.1124,-0.025 m 0,-2.2e-4 c 1.1194,-0.24577 2.2397,-0.38534 3.3954,-0.38534 -0.099,0.14764 -0.152,0.27994 -0.1689,0.39588 m -10.5819,0.008 c 0.7005,-0.77424 0.8997,-2.09944 1.3471,-3.09361 0.6717,-1.49265 6.5823,-2.22192 8.2843,-2.83334 0.8343,-0.29961 2.0229,0.0773 3.7748,0.56131 -0.087,0.50564 -0.2683,1.26821 -0.6031,1.60302 -0.5225,0.52261 -2.4628,0.85823 -3.4329,1.12139 -0.9703,0.26318 -2.0151,0.37126 -2.7989,0.55802 -0.7834,0.18655 -1.4737,0.57809 -1.8284,0.93277 0,0 -0.7836,0.73947 -1.088,1.38279 -0.2712,0.5728 0.2885,-0.22638 0.8243,-0.224 m 8.2481,-0.056 c 0.774,-0.33907 1.9009,-0.13886 2.8369,-0.65534 0.8031,-0.44308 1.0911,-2.33577 1.2329,-3.82366 2.6785,0.70751 4.7617,0.8359 7.3863,0.8359 1.8199,0 3.7127,-0.39671 8.8065,-0.18654 0.25,0.0102 0.4914,0.0173 0.7277,0.0228 -0.2221,1.65602 0.056,2.76953 -0.2305,3.84832 m 65.0518,-0.004 c 2.4846,-1.24771 1.8239,-5.40468 1.8239,-6.97614 0,-1.79102 0.448,-3.76838 0.448,-6.3433 v -1e-4 0 c 0,-2.57471 -2.4629,-3.0971 -3.806,-2.42543 0,0 -0.8208,-0.97025 -1.7537,-1.34336 -0.933,-0.37311 -3.9556,0.48513 -4.9259,0.67169 -0.9702,0.18655 -0.5596,0.67167 -0.5596,0.67167 0,0 -4.8704,1.21448 -8.4153,0.46805 -3.4715,-0.90578 -4.7824,-1.59445 -10.7655,-2.32067 -5.7844,0.38805 -7.3695,0.11042 -12.1084,-0.8971 -4.7393,-1.00773 -5.4479,-2.01484 -8.4333,-3.7688 -2.985,-1.75394 -6.8286,-1.34336 -8.5451,-0.97024 -1.7167,0.37331 -2.6864,1.60465 -7.6868,0.59694 -4.9999,-1.00753 -11.9035,-1.08207 -13.9933,-0.78351 -2.0896,0.29838 -2.6493,-0.93297 -7.8734,-0.44765 -5.2242,0.48513 -7.8362,3.65678 -8.2465,4.55228 -0.4106,0.89551 -0.1868,2.83581 -1.3433,2.53724 -1.157,-0.29857 -3.3211,-1.9403 -4.2915,-2.91055 -0.9702,-0.97025 -3.6195,-1.00752 -4.9254,-1.4179 -1.3061,-0.41039 -2.6867,0.97025 -3.9181,1.23154 -1.2313,0.2611 -1.7164,1.679 -3.4329,2.4625 -1.7164,0.78369 -0.5224,2.16432 -1.6419,3.28387 -1.1194,1.11954 -0.8956,1.41811 -1.1568,3.69404 -0.2614,2.27635 3.2463,2.12705 3.2463,2.12705 0,0 0.7463,0.55967 1.1942,1.86576 0.4478,1.3061 1.8284,1.49245 2.7239,2.05232 0.8958,0.55966 1.1194,1.64194 1.4925,2.98509 0.3733,1.34337 1.6419,-0.0372 2.1645,-0.0372 0.5226,0 0.7089,0.85824 1.0076,0.85824 0,0.41059 0.3731,0.44787 1.0074,0.44787 0.1645,0 0.2813,0.0527 0.4005,0.13067 m 95.5814,0.0115 c -0.4815,-0.24574 -0.7351,-0.59245 -0.7351,-1.04963 -1.1196,0.26128 -3.8434,-0.22362 -3.8434,-1.86558 0,-1.64192 0.9703,-1.49264 1.4927,-2.01504 0.5224,-0.52239 0.7462,-0.52239 0.5224,-1.60464 -0.224,-1.08207 -0.709,-1.11935 -0.709,-1.79102 0,-0.6717 0.2611,-1.04748 -1.045,-0.82243 -1.3061,0.22529 -5.2616,1.27008 -10.5976,2.1658 0,0 -5.2242,2.08957 -8.3212,2.08957 -0.4477,2.9853 -3.0047,4.37767 -5.6539,4.37767 -2.6492,0 -7.3135,-1.00754 -10.5599,-1.23156 -3.2466,-0.22402 -6.0639,0.46649 -8.2468,-1.71646 -2.183,-2.18318 -2.612,-1.97778 -2.612,-1.97778 0,0 -0.5104,0.74665 -2.7175,1.21975 -0.3508,1.30151 0.2864,2.87865 -0.1915,4.2121 m 53.2177,0.01 c 0.9728,0.49675 2.8757,0.58092 5.4966,0.3308 0.4802,-0.0438 0.8888,-0.16321 1.2359,-0.33737 m -87.9569,0.002 c -0.099,0.67525 1.4286,1.11286 2.1929,0.48077 0.1016,-0.084 -0.1684,-0.46714 -0.047,-0.5201" inkscape:connector-curvature="0" sodipodi:nodetypes="cscccccccccccccccccccccsccccssccccccccccccccccccccccccccscscccsccscccsccccccccccc"></path> </g> </g> </g> <g transform="matrix(0.22006269,0,0,0.19142857,311.68905,29.557988)" id="g4990" inkscape:export-xdpi="51.827873" inkscape:export-ydpi="51.827873" style="fill:#d65456;fill-opacity:0.88983053;stroke:#000000;stroke-width:2.5524478;stroke-linecap:round;stroke-linejoin:round;stroke-miterlimit:4;stroke-dasharray:none;stroke-opacity:1"> <path sodipodi:nodetypes="ccccccccccccsccscssscccccccsscccccccccccccc" inkscape:connector-curvature="0" id="path860" d="m -970.14299,411.83184 c 0.88307,-0.86287 1.64404,-1.69156 1.99853,-2.44207 0.94493,-2.00059 2.13971,-4.58531 1.16731,-5.55794 -0.97261,-0.97261 -1.41737,1.19524 -2.22321,2.00107 -0.80582,0.80582 -3.83509,1.33388 -6.33609,1.77843 -2.50121,0.44479 -5.55815,1.83405 -9.78267,1.1115 -4.22405,-0.72231 -14.00632,-2.88993 -17.11888,-3.55687 -3.1128,-0.66695 -2.5571,-2.16786 -6.5589,-2.61242 -1.6655,-0.18502 -4.1493,-0.70723 -6.6179,-1.29382 0.9377,-1.90473 2.1539,-4.40547 2.7828,-5.82084 1.1117,-2.50122 2.7236,-3.16816 2.39,-5.72497 -0.3336,-2.5568 -0.3611,-5.69728 0.2782,-6.3363 0.639,-0.63926 2.3898,0.11138 3.1679,0.11138 0.7782,0 2.3903,1.83382 3.3906,2.11203 1.0003,0.27776 4.27966,0.50037 5.83596,0.22216 1.5565,-0.27776 4.94682,-2.00106 4.94682,-4.27964 0,-2.27883 1.3339,-3.33495 0.83373,-4.39109 -0.50038,-1.05589 -1.05588,-3.11254 -2.27881,-3.89069 -1.22294,-0.77813 -4.11304,-1.44531 -5.72514,-1.44531 -1.61186,0 -4.39096,0.77836 -5.66946,0.77836 -1.2785,0 -2.8972,0.69397 -3.2794,1.61189 -0.5557,1.33411 -3.6676,0.16701 -3.1679,-1.77845 0.9449,-1.72284 2.0569,-4.66861 2.7236,-6.22488 0.667,-1.55651 4.3355,-5.61376 6.2251,-6.55894 1.89,-0.94469 5.39166,-2.112 7.72586,-3.44613 2.33466,-1.33388 5.5861,-2.97344 7.28149,-1.27829 1.69516,1.69517 2.72336,2.61242 3.77971,3.05696 1.05614,0.44455 1.61189,1.66724 2.16762,1.66724 0.55576,0 0.83376,-0.88932 0.83376,-1.55627 v -1.72307 c 0,0 1.8338,1.94547 2.33418,1.44531 0.50038,-0.50015 -0.36126,-1.13941 -1.00031,-1.77866 -0.63902,-0.63904 -1.97316,-2.4177 -2.4456,-2.89017 -0.47246,-0.47224 -2.16738,-1.72307 -3.33473,-1.94547 -1.16731,-0.22238 -5.05822,-1.00052 -7.7816,-0.33358 -2.72342,0.66695 -12.20038,2.52889 -13.50648,3.83533 -1.3061,1.30619 -8.1703,7.94817 -9.3932,9.67103 -1.2227,1.72305 -3.5018,3.16815 -5.2802,4.05748 -1.7784,0.88956 -6.9476,4.05749 -11.6718,7.83698 -4.7245,3.7795 -9.2265,9.72686 -10.8942,13.0062 -1.6673,3.27935 -4.0019,5.94714 -4.78,7.39222 -0.7782,1.44529 -1.3764,5.07582 -5.4338,5.96493 -3.6523,0.80072 -10.7805,4.06608 -12.5803,8.83855" style="fill:#d65456;fill-opacity:0.88983053;stroke:#000000;stroke-width:2.5524478;stroke-linecap:round;stroke-linejoin:round;stroke-miterlimit:4;stroke-dasharray:none;stroke-opacity:1"></path> </g> <path sodipodi:nodetypes="cssssssssscccsscscssscssssssscssccsssscccscsssccsccsssscsscscsssscssscsssscssssccssssccsssssssssscsccsssscccscsscssssssscscsccccscssssssc" inkscape:connector-curvature="0" id="path4923" d="m 120.26401,108.42912 c 0.03,-0.0577 0.62719,-0.71278 0.66796,-0.83432 0.0407,-0.12157 0.0523,-0.25834 0.20959,-0.45586 0.15721,-0.19754 0.30861,-0.50142 0.27946,-0.8357 -0.0291,-0.33432 -0.10476,-0.90154 -0.25617,-1.36751 -0.1514,-0.46598 -0.40756,-1.34727 -0.43667,-1.81325 -0.0291,-0.46595 -0.23293,-1.00282 -0.35518,-1.18517 -0.12223,-0.18235 -0.20961,-0.37481 -0.23871,-0.5622 -0.0293,-0.1874 -0.007,-0.39506 -0.0757,-0.5369 -0.0698,-0.1418 -0.31442,-1.012961 -0.39009,-1.07881 -0.0757,-0.06592 -0.34355,-0.825576 -0.34355,-1.240911 h -0.0931 l 0.0465,-0.698941 c 0,0 -0.12223,-0.0057 -0.12223,-0.08105 0,-0.07597 0,-0.344383 -0.13389,-0.450767 -0.13396,-0.106374 -0.23872,-0.308954 -0.23872,-0.308954 0,0 -0.63469,-0.156996 -0.68708,-0.156996 -0.0524,0 -0.0873,-0.06586 -0.0873,-0.06586 0,0 -0.45414,-0.07597 -1.01892,-0.167138 -0.56477,-0.09113 -1.17033,-0.202587 -1.40322,-0.197535 -0.23291,0.0057 -1.17034,-0.09624 -1.26932,-0.06587 -0.099,0.03046 0.40175,0.471028 0.47163,1.109186 0.0757,0.638185 0.0757,0.810396 0.0932,0.937001 0.0173,0.126642 0.0525,0.4204 -0.32607,0.486228 -0.37846,0.06592 -0.65794,-0.202575 -0.79185,-0.243113 -0.13389,-0.04051 -0.29695,-0.141805 -0.41339,-0.359601 -0.11646,-0.217786 -0.15142,-0.536865 -0.20381,-0.61286 -0.0523,-0.07597 -0.17464,-0.10126 -0.25617,-0.400112 -0.0815,-0.29883 -0.7511,-0.754667 -0.87339,-0.942059 -0.12226,-0.187416 -0.23289,-0.774937 0.0524,-1.215573 0,0 -0.0466,-0.182341 -0.035,-0.374802 0.0116,-0.192476 0.0291,-0.587516 -0.0174,-0.628057 -0.0466,-0.04049 -0.85007,-0.628036 -0.85007,-0.628036 0,0 -0.23872,0.05067 -0.40759,0 -0.16883,-0.05067 -0.74526,-0.3596 -0.94905,-0.526751 -0.20379,-0.167138 -0.55895,-0.471026 -0.4134,-1.063617 0.14556,-0.592576 0.86172,-1.094014 1.56044,-1.220644 0.69869,-0.126611 0.69285,0.344412 0.68704,0.359615 -0.007,0.0152 0.48326,0.192471 0.69288,0.501415 0,0 0.10487,0.08613 0.0932,0.15701 0,0 0.38431,0.263385 0.51821,0.612849 0,0 0.65214,-0.612849 0.72783,-0.648298 0.0757,-0.03539 0.33769,-0.298826 0.57641,-0.379854 0.24455,-0.08105 0.44252,-0.162077 1.14121,-0.172224 0.69869,-0.01012 1.18197,-0.172205 1.39742,-0.17727 0.21544,-0.0057 0.92576,-0.09623 1.0189,-0.19247 0.0932,-0.09623 0.48912,-0.298817 1.11212,-0.420371 0.62298,-0.116496 1.66523,-0.268451 1.66523,-0.268451 0,0 0.14554,-0.106343 0.34934,-0.167131 0.20378,-0.0608 0.75112,-0.08105 0.83263,-0.116495 0.0757,-0.0354 0.30858,-0.167148 0.83843,-0.192469 0,0 0.099,-0.04049 0.15721,-0.101292 0.0581,-0.06079 0.16302,-0.101282 0.20378,-0.106355 0.0408,-0.0057 0.10476,0.04557 0.10476,0.0709 0,0.02522 -0.0467,0.106375 -0.0523,0.106375 -0.007,0 -0.13392,0.101303 -0.13392,0.101303 0,0 0.18052,-0.1469 0.22708,-0.207672 0.0465,-0.0608 0.13392,-0.0608 0.16304,-0.02029 0.0291,0.04067 0.0291,0.131689 -0.007,0.157005 0,0 0.0523,0.01012 0.0641,0.06588 0.01,0.05569 -0.0757,0.136731 -0.22128,0.217781 0,0 0.0175,0.07089 -0.007,0.106365 -0.0233,0.03541 -0.13976,0.157013 -0.12809,0.19247 0.01,0.0354 0.13974,0.0608 0.13392,0.197521 -0.007,0.136764 -0.0641,0.131697 -0.0817,0.131697 -0.0173,0 -0.0873,-0.09623 -0.0873,-0.09623 0,0 -0.0523,0.121563 -0.32609,0.121563 -0.27363,0 -0.82095,0.0152 -0.85007,0.0152 -0.0291,0 -0.73945,0.157016 -0.79768,0.18234 -0.0581,0.02521 -0.11067,-0.03039 -0.11067,-0.03039 0,0 -0.94325,0.521702 -1.67689,0.764809 -0.73364,0.243122 -0.75693,0.268418 -0.87919,0.27857 -0.12228,0.01012 -0.48328,-0.0057 -0.83844,0.07598 -0.35516,0.08105 -0.55314,0.207673 -0.70453,0.248192 -0.15138,0.04067 -0.78604,0.253246 -0.86172,0.27857 0,0 0.5706,0.253233 0.93159,0.445702 0.361,0.192485 1.24019,0.222859 1.56046,0.121559 0.32024,-0.101292 0.34934,0.03039 0.39008,0.03039 0.0408,0 0.29694,-0.07089 0.36681,-0.03039 0.0699,0.0405 0.0991,0.07597 0.0991,0.07597 0,0 0.13392,-0.08614 0.18632,-0.116482 0.0466,-0.03047 0.44254,-0.308963 0.50075,-0.36975 0.0581,-0.06079 0.25619,-0.182324 0.27368,-0.19246 0.0173,-0.01022 0.0233,-0.09124 0.0814,-0.121553 0.0581,-0.03047 0.10476,-0.07598 0.15137,-0.06588 0.0466,0.01012 0.0757,-0.167123 0.13975,-0.162055 0.0698,0.0057 0.43085,-0.09123 0.52984,-0.05569 0,0 0.70453,-0.592593 1.42651,-0.962335 0.72198,-0.369724 1.05387,-0.582455 1.12375,-0.64828 0.07,-0.06587 0.16301,-0.222866 0.42502,-0.344435 0.26201,-0.121552 0.47163,-0.167131 0.55896,-0.22285 0.0873,-0.05576 0.3086,-0.146868 0.38429,-0.172198 0.0757,-0.02522 0.13393,-0.177273 0.23874,-0.253256 0.10476,-0.07598 0.28528,-0.172191 0.60553,-0.349473 0.32023,-0.177265 2.87053,-1.012963 3.1325,-1.088938 0.26205,-0.07597 0.36682,-0.151952 0.43668,-0.17728 0.0698,-0.02522 0.33187,-0.187394 0.3901,-0.207673 0.0583,-0.02029 0.35519,-0.156996 0.35519,-0.156996 0,0 0.25617,-0.24818 0.42507,-0.314029 0.16884,-0.06588 0.33769,-0.116482 0.39007,-0.192459 0.0465,-0.07598 0.33189,-0.420372 0.39009,-0.445702 0.0581,-0.03047 0.13975,0.02029 0.16307,0 0.0235,-0.02029 0.19793,-0.131671 0.23286,-0.131671 0.0352,0 0.0816,-0.02038 0.10477,0 0.0233,0.02029 0.16307,-0.01022 0.21548,0.02522 0.0522,0.0354 0.0522,0.0709 0.0522,0.0709 0,0 0.10487,0.03539 0.13387,0.187392 v 0 c 0,0 0.163,0.01504 0.163,0.227911 0,0.212748 -0.163,0.369742 -0.163,0.369742 0,0 -0.17471,0.157012 -0.20963,0.258315 -0.0352,0.101282 -0.64048,0.329226 -0.76277,0.395057 -0.12222,0.06588 0.0291,0.29376 -0.16301,0.405191 -0.19216,0.116485 -0.55898,0.101303 -0.62885,0.05067 -0.0698,-0.05067 -0.20379,0.101281 -0.34933,0.151919 -0.14557,0.05067 -0.35516,-0.03047 -0.43083,0 -0.0757,0.03046 -1.99134,1.139632 -2.19511,1.327017 -0.20379,0.187417 -0.34936,0.308962 -0.62885,0.460906 -0.27946,0.151943 -0.9898,0.349462 -1.19941,0.435564 -0.20962,0.08612 -0.49493,0.506515 -0.64633,0.638187 -0.15135,0.131688 -0.52401,0.374809 -0.52401,0.374809 0,0 -0.40757,0.410244 -0.69869,0.876216 -0.29115,0.465972 -0.75692,0.967393 -0.75692,0.967393 0,0 0.32606,0.552076 0.35516,0.774934 0.0291,0.222844 -0.15139,0.334277 -0.15139,0.334277 l -1.07715,0.815445 0.55314,1.570109 c 0,0 -0.20376,0.369726 -0.78604,0.648323 0,0 0.17467,1.266202 0,2.491921 -0.17468,1.2257 0.10476,1.47894 0.21543,1.68154 0.10477,0.20259 0.361,0.77998 0.39011,1.2561 0.0291,0.47608 -0.0932,0.93699 -0.10477,1.05348 -0.01,0.11645 -0.0291,1.36753 0.0933,1.93987 0.12221,0.57232 0.16302,0.70402 0.29112,0.85595 0.12808,0.15196 0.22126,0.28364 0.22126,0.38495 0,0.10118 -0.0465,0.27856 -0.4891,0.50648 -0.44253,0.22789 -1.33626,0.72245 -1.33626,0.72245" style="fill:#d75455;fill-opacity:0.89019608;stroke:#000000;stroke-width:0.52388197;stroke-linecap:round;stroke-linejoin:round;stroke-miterlimit:4;stroke-dasharray:none;stroke-opacity:1" inkscape:export-xdpi="51.827873" inkscape:export-ydpi="51.827873"></path> <path style="fill:none;stroke:#000000;stroke-width:0.52388197;stroke-linecap:round;stroke-linejoin:round;stroke-miterlimit:4;stroke-dasharray:none;stroke-opacity:1" d="m 71.276649,108.32413 -0.501609,-1.06705 -0.593666,2.1786 -0.561964,-3.51028 -0.872871,4.9436 -0.763296,-6.24554 -0.766088,3.70067 H 66.19093" id="path4845-0" inkscape:connector-curvature="0" sodipodi:nodetypes="cccccccc" inkscape:export-xdpi="51.827873" inkscape:export-ydpi="51.827873"></path> <path style="fill:none;stroke:#000000;stroke-width:0.52388197;stroke-linecap:round;stroke-linejoin:round;stroke-miterlimit:4;stroke-dasharray:none;stroke-opacity:1" d="m 71.276649,108.32413 h 5.574587" id="path4943" inkscape:connector-curvature="0" sodipodi:nodetypes="cc" inkscape:export-xdpi="51.827873" inkscape:export-ydpi="51.827873"></path> <path style="fill:none;stroke:#000000;stroke-width:0.52425337;stroke-linecap:round;stroke-linejoin:round;stroke-miterlimit:4;stroke-dasharray:none;stroke-opacity:1" d="m 98.196754,108.3944 5.663916,0.0347 h 1.02621 l 0.76608,-3.70067 0.92801,6.24552 0.70817,-4.94358 0.56197,3.51025 0.59367,-2.17863 0.50161,1.06711 h 11.31762" id="path4845-0-5" inkscape:connector-curvature="0" sodipodi:nodetypes="cccccccccc" inkscape:export-xdpi="51.827873" inkscape:export-ydpi="51.827873"></path> <path style="fill:none;stroke:#000000;stroke-width:0.52388197;stroke-linecap:round;stroke-linejoin:round;stroke-miterlimit:4;stroke-dasharray:none;stroke-opacity:1" d="m 121.27868,108.43872 h 12.2571" id="path942" inkscape:connector-curvature="0" inkscape:export-xdpi="51.827873" inkscape:export-ydpi="51.827873"></path> <path style="fill:none;stroke:#000000;stroke-width:0.52388197;stroke-linecap:round;stroke-linejoin:round;stroke-miterlimit:4;stroke-dasharray:none;stroke-opacity:1" d="m 30.147773,108.26863 18.335537,0.0382 0.971508,10e-4" id="path4873" inkscape:connector-curvature="0" sodipodi:nodetypes="cc"></path> <path style="fill:none;stroke:#000000;stroke-width:0.52425337;stroke-linecap:butt;stroke-linejoin:miter;stroke-miterlimit:4;stroke-dasharray:none;stroke-opacity:1" d="m 76.851262,108.32415 21.345492,0.0702" id="path2914" inkscape:connector-curvature="0"></path> <path style="fill:none;stroke:#000000;stroke-width:0.52425337;stroke-linecap:butt;stroke-linejoin:miter;stroke-miterlimit:4;stroke-dasharray:none;stroke-opacity:1" d="m 120.264,108.4291 1.01325,0.009" id="path2916" inkscape:connector-curvature="0"></path> <path inkscape:connector-curvature="0" id="path4894" d="m 85.411346,105.41266 c 0.18349,0.15961 0.972415,0.1756 1.137572,0.0319 -0.16124,0.34359 -0.295831,0.61319 -0.414423,0.87893 -0.0827,-0.0201 -0.149817,-0.0368 -0.197176,-0.049 -0.415852,-0.10644 -0.709437,-0.56391 -0.525973,-0.86187 v 0" style="fill:#ffffff;stroke:#000000;stroke-width:0.52388203;stroke-linecap:round;stroke-linejoin:round;stroke-miterlimit:4;stroke-dasharray:none;stroke-opacity:1"></path> </g> </svg> 